<?xml version="1.0" standalone="no"?>
<!DOCTYPE svg PUBLIC "-//W3C//DTD SVG 20010904//EN"
 "http://www.w3.org/TR/2001/REC-SVG-20010904/DTD/svg10.dtd">
<svg version="1.0" xmlns="http://www.w3.org/2000/svg"
 width="800.000000pt" height="800.000000pt" viewBox="0 0 800.000000 800.000000"
 preserveAspectRatio="xMidYMid meet">

<g transform="translate(0.000000,800.000000) scale(0.100000,-0.100000)"
fill="#000000" stroke="none">
<path d="M890 6025 l0 -1665 260 0 260 0 0 1665 0 1665 -260 0 -260 0 0 -1665z"/>
<path d="M1970 6025 l0 -1665 765 0 765 0 0 265 0 265 -500 0 -500 0 0 1135 0
1135 500 0 500 0 0 265 0 265 -765 0 -765 0 0 -1665z"/>
<path d="M4190 6025 l0 -1665 265 0 265 0 0 1665 0 1665 -265 0 -265 0 0
-1665z"/>
<path d="M5602 7428 l3 -263 498 -3 497 -2 0 -1135 0 -1135 -497 -2 -498 -3
-3 -262 -2 -263 765 0 765 0 0 1665 0 1665 -765 0 -765 0 2 -262z"/>
<path d="M890 1955 l0 -1665 260 0 260 0 0 1665 0 1665 -260 0 -260 0 0 -1665z"/>
<path d="M1972 3358 l3 -263 498 -3 497 -2 0 -1135 0 -1135 -497 -2 -498 -3
-3 -262 -2 -263 765 0 765 0 0 1665 0 1665 -765 0 -765 0 2 -262z"/>
<path d="M4190 1955 l0 -1665 265 0 265 0 0 1665 0 1665 -265 0 -265 0 0
-1665z"/>
<path d="M5600 1955 l0 -1665 765 0 765 0 0 265 0 265 -500 0 -500 0 0 1135 0
1135 500 0 500 0 0 265 0 265 -765 0 -765 0 0 -1665z"/>
</g>
</svg>
