<svg xmlns="http://www.w3.org/2000/svg" xmlns:xlink="http://www.w3.org/1999/xlink" fill="none" version="1.1" width="698.783203125" height="1414.2777099609375" viewBox="0 0 698.783203125 1414.2777099609375"><defs><linearGradient x1="0.04531250149011612" y1="0.9546886682510376" x2="0.9546875357627869" y2="0.045312557369470596" id="master_svg0_3_479"><stop offset="0%" stop-color="#0071FF" stop-opacity="1"/><stop offset="100%" stop-color="#00BFE1" stop-opacity="1"/></linearGradient><linearGradient x1="0.09983060508966446" y1="0.9008647799491882" x2="0.8008610010147095" y2="0.20003634691238403" id="master_svg1_3_162"><stop offset="0%" stop-color="#0071FF" stop-opacity="1"/><stop offset="100%" stop-color="#00BFE1" stop-opacity="1"/></linearGradient><linearGradient x1="0.04531250149011612" y1="0.9546886682510376" x2="0.9546875357627869" y2="0.045312557369470596" id="master_svg2_3_502"><stop offset="0%" stop-color="#0071FF" stop-opacity="1"/><stop offset="100%" stop-color="#01AEE6" stop-opacity="1"/></linearGradient><linearGradient x1="0.09983060508966446" y1="0.9008647799491882" x2="0.8008610010147095" y2="0.20003634691238403" id="master_svg3_3_162"><stop offset="0%" stop-color="#0071FF" stop-opacity="1"/><stop offset="100%" stop-color="#00BFE1" stop-opacity="1"/></linearGradient><linearGradient x1="0.09983060508966446" y1="0.9008647799491882" x2="0.8008610010147095" y2="0.20003634691238403" id="master_svg4_3_162"><stop offset="0%" stop-color="#0071FF" stop-opacity="1"/><stop offset="100%" stop-color="#00BFE1" stop-opacity="1"/></linearGradient><linearGradient x1="0.09983060508966446" y1="0.9008647799491882" x2="0.8008610010147095" y2="0.20003634691238403" id="master_svg5_3_162"><stop offset="0%" stop-color="#0071FF" stop-opacity="1"/><stop offset="100%" stop-color="#00BFE1" stop-opacity="1"/></linearGradient><linearGradient x1="0.09983060508966446" y1="0.9008647799491882" x2="0.8008610010147095" y2="0.20003634691238403" id="master_svg6_3_162"><stop offset="0%" stop-color="#0071FF" stop-opacity="1"/><stop offset="100%" stop-color="#00BFE1" stop-opacity="1"/></linearGradient></defs><g><g></g><g><g><g><path d="M146.21983337402344,891.205710546875L124.21983337402344,891.205710546875C121.45983337402343,891.205710546875,119.21983337402344,888.965710546875,119.21983337402344,886.205710546875L119.21983337402344,864.205810546875C119.21983337402344,861.446840546875,121.45983337402343,859.205810546875,124.21983337402344,859.205810546875L146.21983337402344,859.205810546875C148.97883337402345,859.205810546875,151.21983337402344,861.446840546875,151.21983337402344,864.205810546875L151.21983337402344,886.205710546875C151.21983337402344,888.965710546875,148.97883337402345,891.205710546875,146.21983337402344,891.205710546875Z" fill="url(#master_svg0_3_479)" fill-opacity="1"/></g></g></g><g><g><g><g><path d="M153.93652963256835,844.695828125Q152.50852963256835,844.695828125,151.40602963256836,844.044828125Q150.30352963256837,843.393828125,149.70502963256837,842.196828125Q149.10652963256837,840.999828125,149.10652963256837,839.424828125Q149.10652963256837,837.849828125,149.72602963256836,836.631828125Q150.34552963256837,835.413828125,151.45852963256837,834.741828125Q152.57152963256837,834.069828125,154.02052963256835,834.069828125Q154.81852963256836,834.069828125,155.60602963256835,834.290328125Q156.39352963256835,834.510828125,156.98152963256837,834.930828125Q157.35952963256835,835.182828125,157.51702963256835,835.424328125Q157.67452963256835,835.665828125,157.67452963256835,835.959828125Q157.67452963256835,836.253828125,157.51702963256835,836.442828125Q157.35952963256835,836.631828125,157.10752963256837,836.631828125Q156.96052963256835,836.631828125,156.79252963256835,836.547828125Q156.62452963256837,836.463828125,156.50902963256837,836.379828125Q156.39352963256835,836.295828125,156.35152963256837,836.274828125Q155.80552963256835,835.917828125,155.31202963256837,835.707828125Q154.81852963256836,835.497828125,154.10452963256836,835.497828125Q152.57152963256837,835.497828125,151.72102963256836,836.537328125Q150.87052963256835,837.576828125,150.87052963256835,839.424828125Q150.87052963256835,841.272828125,151.72102963256836,842.280828125Q152.57152963256837,843.288828125,154.10452963256836,843.288828125Q154.81852963256836,843.288828125,155.33302963256835,843.078828125Q155.84752963256835,842.868828125,156.37252963256836,842.511828125Q156.60352963256835,842.364828125,156.81352963256836,842.259828125Q157.02352963256837,842.154828125,157.17052963256836,842.154828125Q157.40152963256836,842.154828125,157.55902963256835,842.343828125Q157.71652963256835,842.532828125,157.71652963256835,842.826828125Q157.71652963256835,843.099828125,157.56952963256836,843.320328125Q157.42252963256837,843.540828125,157.02352963256837,843.813828125Q156.43552963256835,844.212828125,155.60602963256835,844.454328125Q154.77652963256836,844.695828125,153.93652963256835,844.695828125ZM164.52052963256835,843.309828125Q165.25552963256837,843.372828125,165.25552963256837,843.981828125Q165.25552963256837,844.338828125,164.99302963256835,844.517328125Q164.73052963256836,844.695828125,164.20552963256836,844.653828125L163.63852963256835,844.611828125Q161.95852963256837,844.485828125,161.16052963256837,843.603828125Q160.36252963256837,842.721828125,160.36252963256837,840.936828125L160.36252963256837,835.665828125L158.95552963256836,835.665828125Q158.59852963256836,835.665828125,158.39902963256836,835.487328125Q158.19952963256836,835.308828125,158.19952963256836,835.014828125Q158.19952963256836,834.699828125,158.39902963256836,834.510828125Q158.59852963256836,834.321828125,158.95552963256836,834.321828125L160.36252963256837,834.321828125L160.36252963256837,831.948828125Q160.36252963256837,831.549828125,160.59352963256836,831.329328125Q160.82452963256836,831.108828125,161.22352963256836,831.108828125Q161.60152963256837,831.108828125,161.83252963256837,831.329328125Q162.06352963256836,831.549828125,162.06352963256836,831.948828125L162.06352963256836,834.321828125L164.39452963256835,834.321828125Q164.73052963256836,834.321828125,164.93002963256836,834.510828125Q165.12952963256836,834.699828125,165.12952963256836,835.014828125Q165.12952963256836,835.308828125,164.93002963256836,835.487328125Q164.73052963256836,835.665828125,164.39452963256835,835.665828125L162.06352963256836,835.665828125L162.06352963256836,841.020828125Q162.06352963256836,842.175828125,162.53602963256836,842.690328125Q163.00852963256835,843.204828125,163.95352963256835,843.267828125L164.52052963256835,843.309828125ZM170.37952963256836,844.695828125Q169.41352963256836,844.695828125,168.54202963256836,844.464828125Q167.67052963256836,844.233828125,166.99852963256836,843.813828125Q166.62052963256835,843.561828125,166.46302963256835,843.341328125Q166.30552963256835,843.120828125,166.30552963256835,842.805828125Q166.30552963256835,842.532828125,166.46302963256835,842.354328125Q166.62052963256835,842.175828125,166.87252963256836,842.175828125Q167.12452963256837,842.175828125,167.60752963256834,842.490828125Q168.23752963256837,842.868828125,168.85702963256836,843.089328125Q169.47652963256837,843.309828125,170.40052963256835,843.309828125Q171.53452963256836,843.309828125,172.16452963256836,842.910828125Q172.79452963256836,842.511828125,172.79452963256836,841.755828125Q172.79452963256836,841.293828125,172.56352963256836,841.010328125Q172.33252963256837,840.726828125,171.76552963256836,840.506328125Q171.19852963256835,840.285828125,170.10652963256837,840.054828125Q168.25852963256835,839.655828125,167.46052963256835,838.983828125Q166.66252963256835,838.311828125,166.66252963256835,837.156828125Q166.66252963256835,836.253828125,167.16652963256837,835.560828125Q167.67052963256836,834.867828125,168.56302963256837,834.468828125Q169.45552963256836,834.069828125,170.58952963256837,834.069828125Q171.40852963256836,834.069828125,172.17502963256837,834.290328125Q172.94152963256835,834.510828125,173.52952963256837,834.909828125Q174.24352963256837,835.413828125,174.24352963256837,835.959828125Q174.24352963256837,836.232828125,174.07552963256836,836.421828125Q173.90752963256836,836.610828125,173.67652963256836,836.610828125Q173.42452963256835,836.610828125,172.92052963256836,836.253828125Q172.33252963256837,835.875828125,171.80752963256836,835.665828125Q171.28252963256836,835.455828125,170.50552963256837,835.455828125Q169.51852963256835,835.455828125,168.92002963256834,835.896828125Q168.32152963256837,836.337828125,168.32152963256837,837.072828125Q168.32152963256837,837.534828125,168.54202963256836,837.818328125Q168.76252963256837,838.101828125,169.27702963256837,838.322328125Q169.79152963256837,838.542828125,170.75752963256835,838.752828125Q172.18552963256838,839.067828125,172.97302963256837,839.445828125Q173.76052963256836,839.823828125,174.09652963256835,840.369828125Q174.43252963256836,840.915828125,174.43252963256836,841.755828125Q174.43252963256836,843.078828125,173.31952963256836,843.887328125Q172.20652963256836,844.695828125,170.37952963256836,844.695828125ZM187.49452963256834,834.111828125Q188.37652963256835,834.048828125,188.37652963256835,834.825828125Q188.37652963256835,835.161828125,188.18752963256836,835.361328125Q187.99852963256836,835.560828125,187.53652963256837,835.602828125L186.90652963256835,835.665828125Q185.49952963256837,835.791828125,184.81702963256836,836.663328125Q184.13452963256836,837.534828125,184.13452963256836,838.710828125L184.13452963256836,843.813828125Q184.13452963256836,844.233828125,183.90352963256836,844.443828125Q183.67252963256834,844.653828125,183.29452963256836,844.653828125Q182.91652963256837,844.653828125,182.67502963256837,844.433328125Q182.43352963256837,844.212828125,182.43352963256837,843.813828125L182.43352963256837,834.951828125Q182.43352963256837,834.552828125,182.68552963256838,834.332328125Q182.93752963256836,834.111828125,183.29452963256836,834.111828125Q183.63052963256837,834.111828125,183.86152963256836,834.332328125Q184.09252963256836,834.552828125,184.09252963256836,834.930828125L184.09252963256836,836.106828125Q184.53352963256836,835.182828125,185.34202963256837,834.699828125Q186.15052963256835,834.216828125,187.20052963256836,834.132828125L187.49452963256834,834.111828125ZM197.55352963256837,842.175828125Q197.78452963256836,842.175828125,197.95252963256837,842.364828125Q198.12052963256835,842.553828125,198.12052963256835,842.847828125Q198.12052963256835,843.372828125,197.38552963256836,843.813828125Q196.62952963256836,844.254828125,195.78952963256836,844.475328125Q194.94952963256836,844.695828125,194.15152963256836,844.695828125Q191.77852963256836,844.695828125,190.40302963256835,843.288828125Q189.02752963256836,841.881828125,189.02752963256836,839.403828125Q189.02752963256836,837.828828125,189.63652963256837,836.621328125Q190.24552963256835,835.413828125,191.34802963256837,834.741828125Q192.45052963256836,834.069828125,193.85752963256834,834.069828125Q195.85252963256835,834.069828125,197.02852963256836,835.371828125Q198.20452963256835,836.673828125,198.20452963256835,838.899828125Q198.20452963256835,839.319828125,198.03652963256837,839.508828125Q197.86852963256837,839.697828125,197.49052963256835,839.697828125L190.72852963256835,839.697828125Q190.91752963256835,843.309828125,194.15152963256836,843.309828125Q194.97052963256834,843.309828125,195.55852963256837,843.089328125Q196.14652963256836,842.868828125,196.81852963256836,842.490828125Q197.36452963256835,842.175828125,197.55352963256837,842.175828125ZM193.87852963256836,835.392828125Q192.53452963256836,835.392828125,191.72602963256836,836.232828125Q190.91752963256835,837.072828125,190.77052963256835,838.605828125L196.71352963256837,838.605828125Q196.67152963256837,837.051828125,195.93652963256835,836.222328125Q195.20152963256837,835.392828125,193.87852963256836,835.392828125ZM212.08552963256835,834.069828125Q215.48752963256834,834.069828125,215.48752963256834,838.122828125L215.48752963256834,843.813828125Q215.48752963256834,844.212828125,215.25652963256834,844.433328125Q215.02552963256835,844.653828125,214.64752963256836,844.653828125Q214.26952963256838,844.653828125,214.02802963256835,844.433328125Q213.78652963256837,844.212828125,213.78652963256837,843.813828125L213.78652963256837,838.164828125Q213.78652963256837,836.757828125,213.28252963256836,836.127828125Q212.77852963256836,835.497828125,211.70752963256837,835.497828125Q210.42652963256836,835.497828125,209.69152963256835,836.358828125Q208.95652963256836,837.219828125,208.95652963256836,838.689828125L208.95652963256836,843.813828125Q208.95652963256836,844.212828125,208.71502963256836,844.433328125Q208.47352963256836,844.653828125,208.09552963256834,844.653828125Q207.71752963256836,844.653828125,207.48652963256836,844.433328125Q207.25552963256837,844.212828125,207.25552963256837,843.813828125L207.25552963256837,838.164828125Q207.25552963256837,836.757828125,206.75152963256835,836.127828125Q206.24752963256836,835.497828125,205.15552963256835,835.497828125Q203.89552963256835,835.497828125,203.15002963256836,836.358828125Q202.40452963256837,837.219828125,202.40452963256837,838.689828125L202.40452963256837,843.813828125Q202.40452963256837,844.212828125,202.17352963256837,844.433328125Q201.94252963256835,844.653828125,201.56452963256837,844.653828125Q201.18652963256835,844.653828125,200.94502963256835,844.433328125Q200.70352963256835,844.212828125,200.70352963256835,843.813828125L200.70352963256835,834.951828125Q200.70352963256835,834.573828125,200.94502963256835,834.342828125Q201.18652963256835,834.111828125,201.56452963256837,834.111828125Q201.92152963256837,834.111828125,202.15252963256836,834.332328125Q202.38352963256835,834.552828125,202.38352963256835,834.930828125L202.38352963256835,835.938828125Q202.84552963256834,835.035828125,203.66452963256836,834.552828125Q204.48352963256838,834.069828125,205.55452963256835,834.069828125Q207.94852963256835,834.069828125,208.68352963256837,836.085828125Q209.12452963256837,835.161828125,210.02752963256836,834.615828125Q210.93052963256835,834.069828125,212.08552963256835,834.069828125ZM222.83752963256836,844.695828125Q221.38852963256835,844.695828125,220.28602963256836,844.044828125Q219.18352963256837,843.393828125,218.58502963256836,842.186328125Q217.98652963256836,840.978828125,217.98652963256836,839.382828125Q217.98652963256836,837.786828125,218.58502963256836,836.579328125Q219.18352963256837,835.371828125,220.28602963256836,834.720828125Q221.38852963256835,834.069828125,222.83752963256836,834.069828125Q224.28652963256837,834.069828125,225.39952963256837,834.720828125Q226.51252963256837,835.371828125,227.11102963256837,836.579328125Q227.70952963256838,837.786828125,227.70952963256838,839.382828125Q227.70952963256838,840.978828125,227.11102963256837,842.186328125Q226.51252963256837,843.393828125,225.39952963256837,844.044828125Q224.28652963256837,844.695828125,222.83752963256836,844.695828125ZM222.83752963256836,843.288828125Q224.34952963256836,843.288828125,225.15802963256834,842.291328125Q225.96652963256835,841.293828125,225.96652963256835,839.382828125Q225.96652963256835,837.513828125,225.14752963256836,836.495328125Q224.32852963256835,835.476828125,222.83752963256836,835.476828125Q221.34652963256838,835.476828125,220.52752963256836,836.495328125Q219.70852963256834,837.513828125,219.70852963256834,839.382828125Q219.70852963256834,841.272828125,220.51702963256835,842.280828125Q221.32552963256836,843.288828125,222.83752963256836,843.288828125ZM234.95452963256835,843.309828125Q235.68952963256837,843.372828125,235.68952963256837,843.981828125Q235.68952963256837,844.338828125,235.42702963256835,844.517328125Q235.16452963256836,844.695828125,234.63952963256835,844.653828125L234.07252963256838,844.611828125Q232.39252963256837,844.485828125,231.59452963256837,843.603828125Q230.79652963256837,842.721828125,230.79652963256837,840.936828125L230.79652963256837,835.665828125L229.38952963256835,835.665828125Q229.03252963256836,835.665828125,228.83302963256835,835.487328125Q228.63352963256835,835.308828125,228.63352963256835,835.014828125Q228.63352963256835,834.699828125,228.83302963256835,834.510828125Q229.03252963256836,834.321828125,229.38952963256835,834.321828125L230.79652963256837,834.321828125L230.79652963256837,831.948828125Q230.79652963256837,831.549828125,231.02752963256836,831.329328125Q231.25852963256835,831.108828125,231.65752963256836,831.108828125Q232.03552963256834,831.108828125,232.26652963256836,831.329328125Q232.49752963256836,831.549828125,232.49752963256836,831.948828125L232.49752963256836,834.321828125L234.82852963256835,834.321828125Q235.16452963256836,834.321828125,235.36402963256836,834.510828125Q235.56352963256836,834.699828125,235.56352963256836,835.014828125Q235.56352963256836,835.308828125,235.36402963256836,835.487328125Q235.16452963256836,835.665828125,234.82852963256835,835.665828125L232.49752963256836,835.665828125L232.49752963256836,841.020828125Q232.49752963256836,842.175828125,232.97002963256836,842.690328125Q233.44252963256838,843.204828125,234.38752963256837,843.267828125L234.95452963256835,843.309828125ZM245.28652963256837,842.175828125Q245.51752963256837,842.175828125,245.68552963256838,842.364828125Q245.85352963256835,842.553828125,245.85352963256835,842.847828125Q245.85352963256835,843.372828125,245.11852963256837,843.813828125Q244.36252963256834,844.254828125,243.52252963256836,844.475328125Q242.68252963256836,844.695828125,241.88452963256836,844.695828125Q239.51152963256834,844.695828125,238.13602963256835,843.288828125Q236.76052963256836,841.881828125,236.76052963256836,839.403828125Q236.76052963256836,837.828828125,237.36952963256834,836.621328125Q237.97852963256835,835.413828125,239.08102963256835,834.741828125Q240.18352963256837,834.069828125,241.59052963256835,834.069828125Q243.58552963256835,834.069828125,244.76152963256834,835.371828125Q245.93752963256836,836.673828125,245.93752963256836,838.899828125Q245.93752963256836,839.319828125,245.76952963256838,839.508828125Q245.60152963256837,839.697828125,245.22352963256836,839.697828125L238.46152963256836,839.697828125Q238.65052963256835,843.309828125,241.88452963256836,843.309828125Q242.70352963256835,843.309828125,243.29152963256837,843.089328125Q243.87952963256836,842.868828125,244.55152963256836,842.490828125Q245.09752963256835,842.175828125,245.28652963256837,842.175828125ZM241.61152963256836,835.392828125Q240.26752963256837,835.392828125,239.45902963256836,836.232828125Q238.65052963256835,837.072828125,238.50352963256836,838.605828125L244.44652963256834,838.605828125Q244.40452963256837,837.051828125,243.66952963256836,836.222328125Q242.93452963256834,835.392828125,241.61152963256836,835.392828125ZM262.06552963256837,829.638828125Q262.4645296325684,829.638828125,262.69552963256837,829.869828125Q262.92652963256836,830.100828125,262.92652963256836,830.457828125L262.92652963256836,843.813828125Q262.92652963256836,844.191828125,262.69552963256837,844.422828125Q262.4645296325684,844.653828125,262.06552963256837,844.653828125Q261.66652963256837,844.653828125,261.44552963256837,844.422828125Q261.22552963256834,844.191828125,261.22552963256834,843.813828125L261.22552963256834,842.679828125Q260.76352963256835,843.645828125,259.8705296325684,844.170828125Q258.9785296325683,844.695828125,257.7815296325684,844.695828125Q256.4375296325684,844.695828125,255.40852963256836,844.023828125Q254.37952963256836,843.351828125,253.81252963256836,842.144328125Q253.24552963256838,840.936828125,253.24552963256838,839.340828125Q253.24552963256838,837.765828125,253.81252963256836,836.568828125Q254.37952963256836,835.371828125,255.40852963256836,834.720828125Q256.4375296325684,834.069828125,257.7815296325684,834.069828125Q258.9785296325683,834.069828125,259.8705296325684,834.594828125Q260.76352963256835,835.119828125,261.22552963256834,836.085828125L261.22552963256834,830.457828125Q261.22552963256834,830.079828125,261.44552963256837,829.859328125Q261.66652963256837,829.638828125,262.06552963256837,829.638828125ZM258.11752963256833,843.288828125Q259.6085296325684,843.288828125,260.41652963256837,842.270328125Q261.22552963256834,841.251828125,261.22552963256834,839.382828125Q261.22552963256834,837.513828125,260.41652963256837,836.505828125Q259.6085296325684,835.497828125,258.11752963256833,835.497828125Q256.62652963256835,835.497828125,255.79752963256834,836.505828125Q254.96752963256836,837.513828125,254.96752963256836,839.340828125Q254.96752963256836,841.2098281250001,255.79752963256834,842.249328125Q256.62652963256835,843.288828125,258.11752963256833,843.288828125ZM273.99352963256837,842.175828125Q274.22452963256836,842.175828125,274.39252963256837,842.364828125Q274.5605296325684,842.553828125,274.5605296325684,842.847828125Q274.5605296325684,843.372828125,273.82552963256836,843.813828125Q273.06952963256833,844.254828125,272.22952963256836,844.475328125Q271.3895296325684,844.695828125,270.5915296325684,844.695828125Q268.21852963256833,844.695828125,266.84252963256836,843.288828125Q265.46752963256836,841.881828125,265.46752963256836,839.403828125Q265.46752963256836,837.828828125,266.0765296325684,836.621328125Q266.6855296325684,835.413828125,267.78752963256835,834.741828125Q268.89052963256836,834.069828125,270.29752963256834,834.069828125Q272.29252963256835,834.069828125,273.46852963256833,835.371828125Q274.6445296325684,836.673828125,274.6445296325684,838.899828125Q274.6445296325684,839.319828125,274.4765296325684,839.508828125Q274.30852963256837,839.697828125,273.9305296325684,839.697828125L267.1685296325684,839.697828125Q267.35752963256834,843.309828125,270.5915296325684,843.309828125Q271.41052963256834,843.309828125,271.99852963256836,843.089328125Q272.5865296325684,842.868828125,273.25852963256835,842.490828125Q273.80452963256835,842.175828125,273.99352963256837,842.175828125ZM270.31852963256836,835.392828125Q268.97452963256836,835.392828125,268.16552963256834,836.232828125Q267.35752963256834,837.072828125,267.21052963256835,838.605828125L273.1535296325684,838.605828125Q273.11152963256836,837.051828125,272.37652963256835,836.222328125Q271.64152963256834,835.392828125,270.31852963256836,835.392828125ZM280.58752963256836,844.695828125Q279.62152963256835,844.695828125,278.7495296325684,844.464828125Q277.87852963256836,844.233828125,277.2065296325684,843.813828125Q276.82852963256835,843.561828125,276.67152963256837,843.341328125Q276.51352963256835,843.120828125,276.51352963256835,842.805828125Q276.51352963256835,842.532828125,276.67152963256837,842.354328125Q276.82852963256835,842.175828125,277.08052963256836,842.175828125Q277.33252963256837,842.175828125,277.81552963256837,842.490828125Q278.44552963256837,842.868828125,279.06452963256834,843.089328125Q279.68452963256834,843.309828125,280.6085296325683,843.309828125Q281.74252963256833,843.309828125,282.37252963256833,842.910828125Q283.0025296325683,842.511828125,283.0025296325683,841.755828125Q283.0025296325683,841.293828125,282.77152963256833,841.010328125Q282.54052963256834,840.726828125,281.97352963256833,840.506328125Q281.4065296325683,840.285828125,280.31452963256834,840.054828125Q278.4665296325684,839.655828125,277.6685296325684,838.983828125Q276.8705296325684,838.311828125,276.8705296325684,837.156828125Q276.8705296325684,836.253828125,277.3745296325684,835.560828125Q277.87852963256836,834.867828125,278.77152963256833,834.468828125Q279.6635296325684,834.069828125,280.7975296325684,834.069828125Q281.61652963256836,834.069828125,282.38352963256835,834.290328125Q283.1495296325684,834.510828125,283.73752963256834,834.909828125Q284.4515296325684,835.413828125,284.4515296325684,835.959828125Q284.4515296325684,836.232828125,284.2835296325684,836.421828125Q284.1155296325684,836.610828125,283.8845296325684,836.610828125Q283.6325296325683,836.610828125,283.12852963256836,836.253828125Q282.54052963256834,835.875828125,282.01552963256836,835.665828125Q281.4905296325684,835.455828125,280.71352963256834,835.455828125Q279.7265296325684,835.455828125,279.12852963256836,835.896828125Q278.52952963256837,836.337828125,278.52952963256837,837.072828125Q278.52952963256837,837.534828125,278.7495296325684,837.818328125Q278.9705296325684,838.101828125,279.48452963256835,838.322328125Q279.9995296325684,838.542828125,280.96552963256835,838.752828125Q282.39352963256835,839.067828125,283.1805296325683,839.445828125Q283.96852963256833,839.823828125,284.30452963256835,840.369828125Q284.64052963256836,840.915828125,284.64052963256836,841.755828125Q284.64052963256836,843.078828125,283.52752963256836,843.887328125Q282.41452963256836,844.695828125,280.58752963256836,844.695828125ZM295.39252963256837,843.204828125Q295.7285296325683,843.519828125,295.7285296325683,843.876828125Q295.7285296325683,844.191828125,295.5075296325683,844.422828125Q295.28752963256835,844.653828125,294.97252963256835,844.653828125Q294.69952963256833,844.653828125,294.40552963256835,844.401828125L288.92452963256835,839.676828125L288.92452963256835,843.813828125Q288.92452963256835,844.212828125,288.6825296325684,844.433328125Q288.44152963256835,844.653828125,288.0845296325683,844.653828125Q287.7065296325684,844.653828125,287.4645296325684,844.433328125Q287.22352963256833,844.212828125,287.22352963256833,843.813828125L287.22352963256833,830.478828125Q287.22352963256833,830.079828125,287.4645296325684,829.859328125Q287.7065296325684,829.638828125,288.0845296325683,829.638828125Q288.44152963256835,829.638828125,288.6825296325684,829.859328125Q288.92452963256835,830.079828125,288.92452963256835,830.478828125L288.92452963256835,839.004828125L293.94352963256836,834.405828125Q294.19552963256837,834.153828125,294.51052963256836,834.153828125Q294.82552963256836,834.153828125,295.05652963256836,834.384828125Q295.28752963256835,834.615828125,295.28752963256835,834.930828125Q295.28752963256835,835.287828125,294.99352963256837,835.560828125L290.85652963256837,839.256828125L295.39252963256837,843.204828125Z" fill="#000000" fill-opacity="1"/></g></g></g><g><path d="M118.78324127197266,825.1277214050293L118.78324127197266,830.9777214050293L119.69675427197265,830.9777214050293L120.61027127197265,830.9777214050293L120.61027127197265,825.1277214050293L120.61027127197265,819.2777214050293L119.69675427197265,819.2777214050293L118.78324127197266,819.2777214050293L118.78324127197266,825.1277214050293ZM122.57792127197266,825.1277214050293L122.57792127197266,830.9777214050293L125.26576127197265,830.9777214050293L127.95359127197266,830.9777214050293L127.95359127197266,830.0466214050293L127.95359127197266,829.1155614050293L126.19684127197266,829.1155614050293L124.44008127197266,829.1155614050293L124.44008127197266,825.1277214050293L124.44008127197266,821.1398814050293L126.19684127197266,821.1398814050293L127.95359127197266,821.1398814050293L127.95359127197266,820.2088034050292L127.95359127197266,819.2777214050293L125.26576127197265,819.2777214050293L122.57792127197266,819.2777214050293L122.57792127197266,825.1277214050293ZM130.37774127197267,825.1277214050293L130.37774127197267,830.9777214050293L131.30884127197265,830.9777214050293L132.23984127197267,830.9777214050293L132.23984127197267,825.1277214050293L132.23984127197267,819.2777214050293L131.30884127197265,819.2777214050293L130.37774127197267,819.2777214050293L130.37774127197267,825.1277214050293ZM135.33884127197265,820.1982614050293L135.34944127197267,821.1223114050293L137.09914127197266,821.1328614050293L138.84534127197264,821.1398814050293L138.84534127197264,825.1277214050293L138.84534127197264,829.1155614050293L137.09914127197266,829.1225914050293L135.34944127197267,829.1331314050293L135.33884127197265,830.0536214050293L135.33184127197265,830.9777214050293L138.01964127197266,830.9777214050293L140.70754127197264,830.9777214050293L140.70754127197264,825.1277214050293L140.70754127197264,819.2777214050293L138.01964127197266,819.2777214050293L135.33184127197265,819.2777214050293L135.33884127197265,820.1982614050293ZM118.78324127197266,839.4277214050293L118.78324127197266,845.2777214050293L119.69675427197265,845.2777214050293L120.61027127197265,845.2777214050293L120.61027127197265,839.4277214050293L120.61027127197265,833.5777214050293L119.69675427197265,833.5777214050293L118.78324127197266,833.5777214050293L118.78324127197266,839.4277214050293ZM122.58494127197265,834.4982214050293L122.59549127197266,835.4223214050293L124.34522127197266,835.4328214050292L126.09143127197265,835.4399214050293L126.09143127197265,839.4277214050293L126.09143127197265,843.4155214050293L124.34522127197266,843.4226214050293L122.59549127197266,843.4331214050293L122.58494127197265,844.3536214050293L122.57792127197266,845.2777214050293L125.26576127197265,845.2777214050293L127.95359127197266,845.2777214050293L127.95359127197266,839.4277214050293L127.95359127197266,833.5777214050293L125.26576127197265,833.5777214050293L122.57792127197266,833.5777214050293L122.58494127197265,834.4982214050293ZM130.37774127197267,839.4277214050293L130.37774127197267,845.2777214050293L131.30884127197265,845.2777214050293L132.23984127197267,845.2777214050293L132.23984127197267,839.4277214050293L132.23984127197267,833.5777214050293L131.30884127197265,833.5777214050293L130.37774127197267,833.5777214050293L130.37774127197267,839.4277214050293ZM135.33184127197265,839.4277214050293L135.33184127197265,845.2777214050293L138.01964127197266,845.2777214050293L140.70754127197264,845.2777214050293L140.70754127197264,844.3466214050293L140.70754127197264,843.4155214050293L138.95074127197265,843.4155214050293L137.19394127197265,843.4155214050293L137.19394127197265,839.4277214050293L137.19394127197265,835.4399214050293L138.95074127197265,835.4399214050293L140.70754127197264,835.4399214050293L140.70754127197264,834.5088214050293L140.70754127197264,833.5777214050293L138.01964127197266,833.5777214050293L135.33184127197265,833.5777214050293L135.33184127197265,839.4277214050293Z" fill="url(#master_svg1_3_162)" fill-opacity="1"/></g></g><g><g><g><path d="M240.78321075439453,893.2776099609375L218.78321075439453,893.2776099609375C216.02321075439454,893.2776099609375,213.78321075439453,891.0376099609375,213.78321075439453,888.2776099609375L213.78321075439453,866.2777099609375C213.78321075439453,863.5187399609375,216.02321075439454,861.2777099609375,218.78321075439453,861.2777099609375L240.78321075439453,861.2777099609375C243.54221075439455,861.2777099609375,245.78321075439453,863.5187399609375,245.78321075439453,866.2777099609375L245.78321075439453,888.2776099609375C245.78321075439453,891.0376099609375,243.54221075439455,893.2776099609375,240.78321075439453,893.2776099609375Z" fill="url(#master_svg2_3_502)" fill-opacity="1"/></g></g><g><path d="M218.78327560424805,870.1277214050293L218.78327560424805,875.9777214050293L219.69678860424804,875.9777214050293L220.61030560424805,875.9777214050293L220.61030560424805,870.1277214050293L220.61030560424805,864.2777214050293L219.69678860424804,864.2777214050293L218.78327560424805,864.2777214050293L218.78327560424805,870.1277214050293ZM222.57795560424805,870.1277214050293L222.57795560424805,875.9777214050293L225.26579560424804,875.9777214050293L227.95362560424803,875.9777214050293L227.95362560424803,875.0466214050293L227.95362560424803,874.1155614050293L226.19687560424805,874.1155614050293L224.44011560424804,874.1155614050293L224.44011560424804,870.1277214050293L224.44011560424804,866.1398814050293L226.19687560424805,866.1398814050293L227.95362560424803,866.1398814050293L227.95362560424803,865.2088034050292L227.95362560424803,864.2777214050293L225.26579560424804,864.2777214050293L222.57795560424805,864.2777214050293L222.57795560424805,870.1277214050293ZM230.37777560424806,870.1277214050293L230.37777560424806,875.9777214050293L231.30887560424804,875.9777214050293L232.23987560424806,875.9777214050293L232.23987560424806,870.1277214050293L232.23987560424806,864.2777214050293L231.30887560424804,864.2777214050293L230.37777560424806,864.2777214050293L230.37777560424806,870.1277214050293ZM235.33887560424805,865.1982614050293L235.34947560424806,866.1223114050293L237.09917560424805,866.1328614050293L238.84537560424803,866.1398814050293L238.84537560424803,870.1277214050293L238.84537560424803,874.1155614050293L237.09917560424805,874.1225914050293L235.34947560424806,874.1331314050293L235.33887560424805,875.0536214050293L235.33187560424804,875.9777214050293L238.01967560424805,875.9777214050293L240.70757560424804,875.9777214050293L240.70757560424804,870.1277214050293L240.70757560424804,864.2777214050293L238.01967560424805,864.2777214050293L235.33187560424804,864.2777214050293L235.33887560424805,865.1982614050293ZM218.78327560424805,884.4277214050293L218.78327560424805,890.2777214050293L219.69678860424804,890.2777214050293L220.61030560424805,890.2777214050293L220.61030560424805,884.4277214050293L220.61030560424805,878.5777214050293L219.69678860424804,878.5777214050293L218.78327560424805,878.5777214050293L218.78327560424805,884.4277214050293ZM222.58497560424806,879.4982214050293L222.59552560424805,880.4223214050293L224.34525560424805,880.4328214050292L226.09146560424804,880.4399214050293L226.09146560424804,884.4277214050293L226.09146560424804,888.4155214050293L224.34525560424805,888.4226214050293L222.59552560424805,888.4331214050293L222.58497560424806,889.3536214050293L222.57795560424805,890.2777214050293L225.26579560424804,890.2777214050293L227.95362560424803,890.2777214050293L227.95362560424803,884.4277214050293L227.95362560424803,878.5777214050293L225.26579560424804,878.5777214050293L222.57795560424805,878.5777214050293L222.58497560424806,879.4982214050293ZM230.37777560424806,884.4277214050293L230.37777560424806,890.2777214050293L231.30887560424804,890.2777214050293L232.23987560424806,890.2777214050293L232.23987560424806,884.4277214050293L232.23987560424806,878.5777214050293L231.30887560424804,878.5777214050293L230.37777560424806,878.5777214050293L230.37777560424806,884.4277214050293ZM235.33187560424804,884.4277214050293L235.33187560424804,890.2777214050293L238.01967560424805,890.2777214050293L240.70757560424804,890.2777214050293L240.70757560424804,889.3466214050293L240.70757560424804,888.4155214050293L238.95077560424804,888.4155214050293L237.19397560424804,888.4155214050293L237.19397560424804,884.4277214050293L237.19397560424804,880.4399214050293L238.95077560424804,880.4399214050293L240.70757560424804,880.4399214050293L240.70757560424804,879.5088214050293L240.70757560424804,878.5777214050293L238.01967560424805,878.5777214050293L235.33187560424804,878.5777214050293L235.33187560424804,884.4277214050293Z" fill="#FFFFFF" fill-opacity="1"/></g></g><g><g></g></g><g><g><rect x="213.783203125" y="1044.2777099609375" width="32" height="32" rx="0" fill="#FFFFFF" fill-opacity="1"/></g><g><path d="M218.783203125,1053.1277099609374L218.783203125,1058.9777099609375L219.696716125,1058.9777099609375L220.610233125,1058.9777099609375L220.610233125,1053.1277099609374L220.610233125,1047.2777099609375L219.696716125,1047.2777099609375L218.783203125,1047.2777099609375L218.783203125,1053.1277099609374ZM222.577883125,1053.1277099609374L222.577883125,1058.9777099609375L225.265713125,1058.9777099609375L227.95355312499998,1058.9777099609375L227.95355312499998,1058.0466099609375L227.95355312499998,1057.1155399609374L226.196803125,1057.1155399609374L224.440033125,1057.1155399609374L224.440033125,1053.1277099609374L224.440033125,1049.1398699609374L226.196803125,1049.1398699609374L227.95355312499998,1049.1398699609374L227.95355312499998,1048.2087859609376L227.95355312499998,1047.2777099609375L225.265713125,1047.2777099609375L222.577883125,1047.2777099609375L222.577883125,1053.1277099609374ZM230.377703125,1053.1277099609374L230.377703125,1058.9777099609375L231.308803125,1058.9777099609375L232.239803125,1058.9777099609375L232.239803125,1053.1277099609374L232.239803125,1047.2777099609375L231.308803125,1047.2777099609375L230.377703125,1047.2777099609375L230.377703125,1053.1277099609374ZM235.338803125,1048.1982499609376L235.349403125,1049.1222999609374L237.099103125,1049.1328399609374L238.845303125,1049.1398699609374L238.845303125,1053.1277099609374L238.845303125,1057.1155399609374L237.099103125,1057.1225699609374L235.349403125,1057.1331199609374L235.338803125,1058.0536099609376L235.331803125,1058.9777099609375L238.019603125,1058.9777099609375L240.707503125,1058.9777099609375L240.707503125,1053.1277099609374L240.707503125,1047.2777099609375L238.019603125,1047.2777099609375L235.331803125,1047.2777099609375L235.338803125,1048.1982499609376ZM218.783203125,1067.4277099609376L218.783203125,1073.2777099609375L219.696716125,1073.2777099609375L220.610233125,1073.2777099609375L220.610233125,1067.4277099609376L220.610233125,1061.5777099609375L219.696716125,1061.5777099609375L218.783203125,1061.5777099609375L218.783203125,1067.4277099609376ZM222.584903125,1062.4982099609374L222.595463125,1063.4223099609376L224.345183125,1063.4328099609374L226.091403125,1063.4398099609375L226.091403125,1067.4277099609376L226.091403125,1071.4155099609375L224.345183125,1071.4226099609375L222.595463125,1071.4331099609376L222.584903125,1072.3536099609375L222.577883125,1073.2777099609375L225.265713125,1073.2777099609375L227.95355312499998,1073.2777099609375L227.95355312499998,1067.4277099609376L227.95355312499998,1061.5777099609375L225.265713125,1061.5777099609375L222.577883125,1061.5777099609375L222.584903125,1062.4982099609374ZM230.377703125,1067.4277099609376L230.377703125,1073.2777099609375L231.308803125,1073.2777099609375L232.239803125,1073.2777099609375L232.239803125,1067.4277099609376L232.239803125,1061.5777099609375L231.308803125,1061.5777099609375L230.377703125,1061.5777099609375L230.377703125,1067.4277099609376ZM235.331803125,1067.4277099609376L235.331803125,1073.2777099609375L238.019603125,1073.2777099609375L240.707503125,1073.2777099609375L240.707503125,1072.3466099609375L240.707503125,1071.4155099609375L238.950703125,1071.4155099609375L237.193903125,1071.4155099609375L237.193903125,1067.4277099609376L237.193903125,1063.4398099609375L238.950703125,1063.4398099609375L240.707503125,1063.4398099609375L240.707503125,1062.5088099609375L240.707503125,1061.5777099609375L238.019603125,1061.5777099609375L235.331803125,1061.5777099609375L235.331803125,1067.4277099609376Z" fill="url(#master_svg3_3_162)" fill-opacity="1"/></g></g><g><g><g><rect x="213.783203125" y="989.2777099609375" width="32" height="32" rx="5" fill="#FFFFFF" fill-opacity="1"/></g><g><path d="M218.783203125,998.1277099609375L218.783203125,1003.9777099609375L219.696716125,1003.9777099609375L220.610233125,1003.9777099609375L220.610233125,998.1277099609375L220.610233125,992.2777099609375L219.696716125,992.2777099609375L218.783203125,992.2777099609375L218.783203125,998.1277099609375ZM222.577883125,998.1277099609375L222.577883125,1003.9777099609375L225.265713125,1003.9777099609375L227.95355312499998,1003.9777099609375L227.95355312499998,1003.0466099609375L227.95355312499998,1002.1155399609376L226.196803125,1002.1155399609376L224.440033125,1002.1155399609376L224.440033125,998.1277099609375L224.440033125,994.1398699609375L226.196803125,994.1398699609375L227.95355312499998,994.1398699609375L227.95355312499998,993.2087859609375L227.95355312499998,992.2777099609375L225.265713125,992.2777099609375L222.577883125,992.2777099609375L222.577883125,998.1277099609375ZM230.377703125,998.1277099609375L230.377703125,1003.9777099609375L231.308803125,1003.9777099609375L232.239803125,1003.9777099609375L232.239803125,998.1277099609375L232.239803125,992.2777099609375L231.308803125,992.2777099609375L230.377703125,992.2777099609375L230.377703125,998.1277099609375ZM235.338803125,993.1982499609375L235.349403125,994.1222999609375L237.099103125,994.1328399609375L238.845303125,994.1398699609375L238.845303125,998.1277099609375L238.845303125,1002.1155399609376L237.099103125,1002.1225699609375L235.349403125,1002.1331199609375L235.338803125,1003.0536099609375L235.331803125,1003.9777099609375L238.019603125,1003.9777099609375L240.707503125,1003.9777099609375L240.707503125,998.1277099609375L240.707503125,992.2777099609375L238.019603125,992.2777099609375L235.331803125,992.2777099609375L235.338803125,993.1982499609375ZM218.783203125,1012.4277099609375L218.783203125,1018.2777099609375L219.696716125,1018.2777099609375L220.610233125,1018.2777099609375L220.610233125,1012.4277099609375L220.610233125,1006.5777099609375L219.696716125,1006.5777099609375L218.783203125,1006.5777099609375L218.783203125,1012.4277099609375ZM222.584903125,1007.4982099609375L222.595463125,1008.4223099609375L224.345183125,1008.4328099609374L226.091403125,1008.4398099609375L226.091403125,1012.4277099609375L226.091403125,1016.4155099609375L224.345183125,1016.4226099609375L222.595463125,1016.4331099609375L222.584903125,1017.3536099609375L222.577883125,1018.2777099609375L225.265713125,1018.2777099609375L227.95355312499998,1018.2777099609375L227.95355312499998,1012.4277099609375L227.95355312499998,1006.5777099609375L225.265713125,1006.5777099609375L222.577883125,1006.5777099609375L222.584903125,1007.4982099609375ZM230.377703125,1012.4277099609375L230.377703125,1018.2777099609375L231.308803125,1018.2777099609375L232.239803125,1018.2777099609375L232.239803125,1012.4277099609375L232.239803125,1006.5777099609375L231.308803125,1006.5777099609375L230.377703125,1006.5777099609375L230.377703125,1012.4277099609375ZM235.331803125,1012.4277099609375L235.331803125,1018.2777099609375L238.019603125,1018.2777099609375L240.707503125,1018.2777099609375L240.707503125,1017.3466099609375L240.707503125,1016.4155099609375L238.950703125,1016.4155099609375L237.193903125,1016.4155099609375L237.193903125,1012.4277099609375L237.193903125,1008.4398099609375L238.950703125,1008.4398099609375L240.707503125,1008.4398099609375L240.707503125,1007.5088099609375L240.707503125,1006.5777099609375L238.019603125,1006.5777099609375L235.331803125,1006.5777099609375L235.331803125,1012.4277099609375Z" fill="url(#master_svg4_3_162)" fill-opacity="1"/></g></g></g><g><path d="" fill="#000000" fill-opacity="1"/></g><g><g><g><rect x="213.783203125" y="934.2777099609375" width="32" height="32" rx="7" fill="#FFFFFF" fill-opacity="1"/></g><g><path d="M218.783203125,943.1277099609375L218.783203125,948.9777099609375L219.696716125,948.9777099609375L220.610233125,948.9777099609375L220.610233125,943.1277099609375L220.610233125,937.2777099609375L219.696716125,937.2777099609375L218.783203125,937.2777099609375L218.783203125,943.1277099609375ZM222.577883125,943.1277099609375L222.577883125,948.9777099609375L225.265713125,948.9777099609375L227.95355312499998,948.9777099609375L227.95355312499998,948.0466099609375L227.95355312499998,947.1155399609376L226.196803125,947.1155399609376L224.440033125,947.1155399609376L224.440033125,943.1277099609375L224.440033125,939.1398699609375L226.196803125,939.1398699609375L227.95355312499998,939.1398699609375L227.95355312499998,938.2087859609375L227.95355312499998,937.2777099609375L225.265713125,937.2777099609375L222.577883125,937.2777099609375L222.577883125,943.1277099609375ZM230.377703125,943.1277099609375L230.377703125,948.9777099609375L231.308803125,948.9777099609375L232.239803125,948.9777099609375L232.239803125,943.1277099609375L232.239803125,937.2777099609375L231.308803125,937.2777099609375L230.377703125,937.2777099609375L230.377703125,943.1277099609375ZM235.338803125,938.1982499609375L235.349403125,939.1222999609375L237.099103125,939.1328399609375L238.845303125,939.1398699609375L238.845303125,943.1277099609375L238.845303125,947.1155399609376L237.099103125,947.1225699609375L235.349403125,947.1331199609375L235.338803125,948.0536099609375L235.331803125,948.9777099609375L238.019603125,948.9777099609375L240.707503125,948.9777099609375L240.707503125,943.1277099609375L240.707503125,937.2777099609375L238.019603125,937.2777099609375L235.331803125,937.2777099609375L235.338803125,938.1982499609375ZM218.783203125,957.4277099609375L218.783203125,963.2777099609375L219.696716125,963.2777099609375L220.610233125,963.2777099609375L220.610233125,957.4277099609375L220.610233125,951.5777099609375L219.696716125,951.5777099609375L218.783203125,951.5777099609375L218.783203125,957.4277099609375ZM222.584903125,952.4982099609375L222.595463125,953.4223099609375L224.345183125,953.4328099609374L226.091403125,953.4398099609375L226.091403125,957.4277099609375L226.091403125,961.4155099609375L224.345183125,961.4226099609375L222.595463125,961.4331099609375L222.584903125,962.3536099609375L222.577883125,963.2777099609375L225.265713125,963.2777099609375L227.95355312499998,963.2777099609375L227.95355312499998,957.4277099609375L227.95355312499998,951.5777099609375L225.265713125,951.5777099609375L222.577883125,951.5777099609375L222.584903125,952.4982099609375ZM230.377703125,957.4277099609375L230.377703125,963.2777099609375L231.308803125,963.2777099609375L232.239803125,963.2777099609375L232.239803125,957.4277099609375L232.239803125,951.5777099609375L231.308803125,951.5777099609375L230.377703125,951.5777099609375L230.377703125,957.4277099609375ZM235.331803125,957.4277099609375L235.331803125,963.2777099609375L238.019603125,963.2777099609375L240.707503125,963.2777099609375L240.707503125,962.3466099609375L240.707503125,961.4155099609375L238.950703125,961.4155099609375L237.193903125,961.4155099609375L237.193903125,957.4277099609375L237.193903125,953.4398099609375L238.950703125,953.4398099609375L240.707503125,953.4398099609375L240.707503125,952.5088099609375L240.707503125,951.5777099609375L238.019603125,951.5777099609375L235.331803125,951.5777099609375L235.331803125,957.4277099609375Z" fill="url(#master_svg5_3_162)" fill-opacity="1"/></g></g></g><g><path d="M124.78326797485352,868.1277214050293L124.78326797485352,873.9777214050293L125.69678097485351,873.9777214050293L126.61029797485351,873.9777214050293L126.61029797485351,868.1277214050293L126.61029797485351,862.2777214050293L125.69678097485351,862.2777214050293L124.78326797485352,862.2777214050293L124.78326797485352,868.1277214050293ZM128.57794797485352,868.1277214050293L128.57794797485352,873.9777214050293L131.2657879748535,873.9777214050293L133.9536179748535,873.9777214050293L133.9536179748535,873.0466214050293L133.9536179748535,872.1155614050293L132.19686797485352,872.1155614050293L130.4401079748535,872.1155614050293L130.4401079748535,868.1277214050293L130.4401079748535,864.1398814050293L132.19686797485352,864.1398814050293L133.9536179748535,864.1398814050293L133.9536179748535,863.2088034050292L133.9536179748535,862.2777214050293L131.2657879748535,862.2777214050293L128.57794797485352,862.2777214050293L128.57794797485352,868.1277214050293ZM136.37776797485353,868.1277214050293L136.37776797485353,873.9777214050293L137.3088679748535,873.9777214050293L138.23986797485352,873.9777214050293L138.23986797485352,868.1277214050293L138.23986797485352,862.2777214050293L137.3088679748535,862.2777214050293L136.37776797485353,862.2777214050293L136.37776797485353,868.1277214050293ZM141.3388679748535,863.1982614050293L141.34946797485352,864.1223114050293L143.09916797485351,864.1328614050293L144.8453679748535,864.1398814050293L144.8453679748535,868.1277214050293L144.8453679748535,872.1155614050293L143.09916797485351,872.1225914050293L141.34946797485352,872.1331314050293L141.3388679748535,873.0536214050293L141.3318679748535,873.9777214050293L144.01966797485352,873.9777214050293L146.7075679748535,873.9777214050293L146.7075679748535,868.1277214050293L146.7075679748535,862.2777214050293L144.01966797485352,862.2777214050293L141.3318679748535,862.2777214050293L141.3388679748535,863.1982614050293ZM124.78326797485352,882.4277214050293L124.78326797485352,888.2777214050293L125.69678097485351,888.2777214050293L126.61029797485351,888.2777214050293L126.61029797485351,882.4277214050293L126.61029797485351,876.5777214050293L125.69678097485351,876.5777214050293L124.78326797485352,876.5777214050293L124.78326797485352,882.4277214050293ZM128.58496797485353,877.4982214050293L128.59551797485352,878.4223214050293L130.34524797485352,878.4328214050292L132.0914579748535,878.4399214050293L132.0914579748535,882.4277214050293L132.0914579748535,886.4155214050293L130.34524797485352,886.4226214050293L128.59551797485352,886.4331214050293L128.58496797485353,887.3536214050293L128.57794797485352,888.2777214050293L131.2657879748535,888.2777214050293L133.9536179748535,888.2777214050293L133.9536179748535,882.4277214050293L133.9536179748535,876.5777214050293L131.2657879748535,876.5777214050293L128.57794797485352,876.5777214050293L128.58496797485353,877.4982214050293ZM136.37776797485353,882.4277214050293L136.37776797485353,888.2777214050293L137.3088679748535,888.2777214050293L138.23986797485352,888.2777214050293L138.23986797485352,882.4277214050293L138.23986797485352,876.5777214050293L137.3088679748535,876.5777214050293L136.37776797485353,876.5777214050293L136.37776797485353,882.4277214050293ZM141.3318679748535,882.4277214050293L141.3318679748535,888.2777214050293L144.01966797485352,888.2777214050293L146.7075679748535,888.2777214050293L146.7075679748535,887.3466214050293L146.7075679748535,886.4155214050293L144.9507679748535,886.4155214050293L143.1939679748535,886.4155214050293L143.1939679748535,882.4277214050293L143.1939679748535,878.4399214050293L144.9507679748535,878.4399214050293L146.7075679748535,878.4399214050293L146.7075679748535,877.5088214050293L146.7075679748535,876.5777214050293L144.01966797485352,876.5777214050293L141.3318679748535,876.5777214050293L141.3318679748535,882.4277214050293Z" fill="#FFFFFF" fill-opacity="1"/></g><g><path d="M124.783203125,909.1277099609375L124.783203125,914.9777099609375L125.696716125,914.9777099609375L126.610233125,914.9777099609375L126.610233125,909.1277099609375L126.610233125,903.2777099609375L125.696716125,903.2777099609375L124.783203125,903.2777099609375L124.783203125,909.1277099609375ZM128.577883125,909.1277099609375L128.577883125,914.9777099609375L131.265713125,914.9777099609375L133.95355312499998,914.9777099609375L133.95355312499998,914.0466099609375L133.95355312499998,913.1155399609376L132.196803125,913.1155399609376L130.440033125,913.1155399609376L130.440033125,909.1277099609375L130.440033125,905.1398699609375L132.196803125,905.1398699609375L133.95355312499998,905.1398699609375L133.95355312499998,904.2087859609375L133.95355312499998,903.2777099609375L131.265713125,903.2777099609375L128.577883125,903.2777099609375L128.577883125,909.1277099609375ZM136.377703125,909.1277099609375L136.377703125,914.9777099609375L137.308803125,914.9777099609375L138.239803125,914.9777099609375L138.239803125,909.1277099609375L138.239803125,903.2777099609375L137.308803125,903.2777099609375L136.377703125,903.2777099609375L136.377703125,909.1277099609375ZM141.338803125,904.1982499609375L141.349403125,905.1222999609375L143.099103125,905.1328399609375L144.845303125,905.1398699609375L144.845303125,909.1277099609375L144.845303125,913.1155399609376L143.099103125,913.1225699609375L141.349403125,913.1331199609375L141.338803125,914.0536099609375L141.331803125,914.9777099609375L144.019603125,914.9777099609375L146.707503125,914.9777099609375L146.707503125,909.1277099609375L146.707503125,903.2777099609375L144.019603125,903.2777099609375L141.331803125,903.2777099609375L141.338803125,904.1982499609375ZM124.783203125,923.4277099609375L124.783203125,929.2777099609375L125.696716125,929.2777099609375L126.610233125,929.2777099609375L126.610233125,923.4277099609375L126.610233125,917.5777099609375L125.696716125,917.5777099609375L124.783203125,917.5777099609375L124.783203125,923.4277099609375ZM128.584903125,918.4982099609375L128.595463125,919.4223099609375L130.345183125,919.4328099609374L132.091403125,919.4398099609375L132.091403125,923.4277099609375L132.091403125,927.4155099609375L130.345183125,927.4226099609375L128.595463125,927.4331099609375L128.584903125,928.3536099609375L128.577883125,929.2777099609375L131.265713125,929.2777099609375L133.95355312499998,929.2777099609375L133.95355312499998,923.4277099609375L133.95355312499998,917.5777099609375L131.265713125,917.5777099609375L128.577883125,917.5777099609375L128.584903125,918.4982099609375ZM136.377703125,923.4277099609375L136.377703125,929.2777099609375L137.308803125,929.2777099609375L138.239803125,929.2777099609375L138.239803125,923.4277099609375L138.239803125,917.5777099609375L137.308803125,917.5777099609375L136.377703125,917.5777099609375L136.377703125,923.4277099609375ZM141.331803125,923.4277099609375L141.331803125,929.2777099609375L144.019603125,929.2777099609375L146.707503125,929.2777099609375L146.707503125,928.3466099609375L146.707503125,927.4155099609375L144.950703125,927.4155099609375L143.193903125,927.4155099609375L143.193903125,923.4277099609375L143.193903125,919.4398099609375L144.950703125,919.4398099609375L146.707503125,919.4398099609375L146.707503125,918.5088099609375L146.707503125,917.5777099609375L144.019603125,917.5777099609375L141.331803125,917.5777099609375L141.331803125,923.4277099609375Z" fill="url(#master_svg6_3_162)" fill-opacity="1"/></g><g><path d="M123.783203125,991.1277099609375L123.783203125,996.9777099609375L124.696716125,996.9777099609375L125.610233125,996.9777099609375L125.610233125,991.1277099609375L125.610233125,985.2777099609375L124.696716125,985.2777099609375L123.783203125,985.2777099609375L123.783203125,991.1277099609375ZM127.577883125,991.1277099609375L127.577883125,996.9777099609375L130.265723125,996.9777099609375L132.95355312499998,996.9777099609375L132.95355312499998,996.0466099609375L132.95355312499998,995.1155499609375L131.196803125,995.1155499609375L129.440043125,995.1155499609375L129.440043125,991.1277099609375L129.440043125,987.1398699609375L131.196803125,987.1398699609375L132.95355312499998,987.1398699609375L132.95355312499998,986.2087919609374L132.95355312499998,985.2777099609375L130.265723125,985.2777099609375L127.577883125,985.2777099609375L127.577883125,991.1277099609375ZM135.377703125,991.1277099609375L135.377703125,996.9777099609375L136.308803125,996.9777099609375L137.239803125,996.9777099609375L137.239803125,991.1277099609375L137.239803125,985.2777099609375L136.308803125,985.2777099609375L135.377703125,985.2777099609375L135.377703125,991.1277099609375ZM140.338803125,986.1982499609375L140.349403125,987.1222999609375L142.099103125,987.1328499609375L143.845303125,987.1398699609375L143.845303125,991.1277099609375L143.845303125,995.1155499609375L142.099103125,995.1225799609375L140.349403125,995.1331199609375L140.338803125,996.0536099609375L140.331803125,996.9777099609375L143.019603125,996.9777099609375L145.707503125,996.9777099609375L145.707503125,991.1277099609375L145.707503125,985.2777099609375L143.019603125,985.2777099609375L140.331803125,985.2777099609375L140.338803125,986.1982499609375ZM123.783203125,1005.4277099609375L123.783203125,1011.2777099609375L124.696716125,1011.2777099609375L125.610233125,1011.2777099609375L125.610233125,1005.4277099609375L125.610233125,999.5777099609375L124.696716125,999.5777099609375L123.783203125,999.5777099609375L123.783203125,1005.4277099609375ZM127.584903125,1000.4982099609375L127.595453125,1001.4223099609375L129.345183125,1001.4328099609374L131.091393125,1001.4399099609375L131.091393125,1005.4277099609375L131.091393125,1009.4155099609375L129.345183125,1009.4226099609375L127.595453125,1009.4331099609375L127.584903125,1010.3536099609375L127.577883125,1011.2777099609375L130.265723125,1011.2777099609375L132.95355312499998,1011.2777099609375L132.95355312499998,1005.4277099609375L132.95355312499998,999.5777099609375L130.265723125,999.5777099609375L127.577883125,999.5777099609375L127.584903125,1000.4982099609375ZM135.377703125,1005.4277099609375L135.377703125,1011.2777099609375L136.308803125,1011.2777099609375L137.239803125,1011.2777099609375L137.239803125,1005.4277099609375L137.239803125,999.5777099609375L136.308803125,999.5777099609375L135.377703125,999.5777099609375L135.377703125,1005.4277099609375ZM140.331803125,1005.4277099609375L140.331803125,1011.2777099609375L143.019603125,1011.2777099609375L145.707503125,1011.2777099609375L145.707503125,1010.3466099609375L145.707503125,1009.4155099609375L143.950703125,1009.4155099609375L142.193903125,1009.4155099609375L142.193903125,1005.4277099609375L142.193903125,1001.4399099609375L143.950703125,1001.4399099609375L145.707503125,1001.4399099609375L145.707503125,1000.5088099609375L145.707503125,999.5777099609375L143.019603125,999.5777099609375L140.331803125,999.5777099609375L140.331803125,1005.4277099609375Z" fill="#FFFFFF" fill-opacity="1"/></g><g><path d="M124.783203125,950.1277099609375L124.783203125,955.9777099609375L125.696716125,955.9777099609375L126.610233125,955.9777099609375L126.610233125,950.1277099609375L126.610233125,944.2777099609375L125.696716125,944.2777099609375L124.783203125,944.2777099609375L124.783203125,950.1277099609375ZM128.577883125,950.1277099609375L128.577883125,955.9777099609375L131.265723125,955.9777099609375L133.95355312499998,955.9777099609375L133.95355312499998,955.0466099609375L133.95355312499998,954.1155499609375L132.196803125,954.1155499609375L130.440043125,954.1155499609375L130.440043125,950.1277099609375L130.440043125,946.1398699609375L132.196803125,946.1398699609375L133.95355312499998,946.1398699609375L133.95355312499998,945.2087919609374L133.95355312499998,944.2777099609375L131.265723125,944.2777099609375L128.577883125,944.2777099609375L128.577883125,950.1277099609375ZM136.377703125,950.1277099609375L136.377703125,955.9777099609375L137.308803125,955.9777099609375L138.239803125,955.9777099609375L138.239803125,950.1277099609375L138.239803125,944.2777099609375L137.308803125,944.2777099609375L136.377703125,944.2777099609375L136.377703125,950.1277099609375ZM141.338803125,945.1982499609375L141.349403125,946.1222999609375L143.099103125,946.1328499609375L144.845303125,946.1398699609375L144.845303125,950.1277099609375L144.845303125,954.1155499609375L143.099103125,954.1225799609375L141.349403125,954.1331199609375L141.338803125,955.0536099609375L141.331803125,955.9777099609375L144.019603125,955.9777099609375L146.707503125,955.9777099609375L146.707503125,950.1277099609375L146.707503125,944.2777099609375L144.019603125,944.2777099609375L141.331803125,944.2777099609375L141.338803125,945.1982499609375ZM124.783203125,964.4277099609375L124.783203125,970.2777099609375L125.696716125,970.2777099609375L126.610233125,970.2777099609375L126.610233125,964.4277099609375L126.610233125,958.5777099609375L125.696716125,958.5777099609375L124.783203125,958.5777099609375L124.783203125,964.4277099609375ZM128.584903125,959.4982099609375L128.595453125,960.4223099609375L130.345183125,960.4328099609374L132.091393125,960.4399099609375L132.091393125,964.4277099609375L132.091393125,968.4155099609375L130.345183125,968.4226099609375L128.595453125,968.4331099609375L128.584903125,969.3536099609375L128.577883125,970.2777099609375L131.265723125,970.2777099609375L133.95355312499998,970.2777099609375L133.95355312499998,964.4277099609375L133.95355312499998,958.5777099609375L131.265723125,958.5777099609375L128.577883125,958.5777099609375L128.584903125,959.4982099609375ZM136.377703125,964.4277099609375L136.377703125,970.2777099609375L137.308803125,970.2777099609375L138.239803125,970.2777099609375L138.239803125,964.4277099609375L138.239803125,958.5777099609375L137.308803125,958.5777099609375L136.377703125,958.5777099609375L136.377703125,964.4277099609375ZM141.331803125,964.4277099609375L141.331803125,970.2777099609375L144.019603125,970.2777099609375L146.707503125,970.2777099609375L146.707503125,969.3466099609375L146.707503125,968.4155099609375L144.950703125,968.4155099609375L143.193903125,968.4155099609375L143.193903125,964.4277099609375L143.193903125,960.4399099609375L144.950703125,960.4399099609375L146.707503125,960.4399099609375L146.707503125,959.5088099609375L146.707503125,958.5777099609375L144.019603125,958.5777099609375L141.331803125,958.5777099609375L141.331803125,964.4277099609375Z" fill="#1A1A1A" fill-opacity="1"/></g></g></svg>