<svg xmlns="http://www.w3.org/2000/svg" xmlns:xlink="http://www.w3.org/1999/xlink" fill="none" version="1.1" width="1000" height="286.6000061035156" viewBox="0 0 1000 286.6000061035156"><defs><clipPath id="master_svg0_3_163"><rect x="0" y="0" width="1000" height="286.6000061035156" rx="0"/></clipPath><linearGradient x1="0.09983060508966446" y1="0.9008647799491882" x2="0.8008610010147095" y2="0.20003634691238403" id="master_svg1_3_162"><stop offset="0%" stop-color="#0071FF" stop-opacity="1"/><stop offset="100%" stop-color="#00BFE1" stop-opacity="1"/></linearGradient></defs><g clip-path="url(#master_svg0_3_163)"><g><path d="M0,0L1000,0L1000,286.6L0,286.6L0,0Z" fill-rule="evenodd" fill="#E5E5E5" fill-opacity="1"/></g><g><g><g><path d="M406.7999,235.29998763769532Q407.0999,234.89999389649532,407.4999,234.89999389649532Q407.9999,234.89999389649532,408.2999,235.1999966376953Q408.5999,235.5999906376953,408.5999,235.9999986376953Q408.5999,236.40000863769532,408.2999,236.6999986376953L402.99994,243.39999863769532L402.99994,249.8999786376953Q402.99994,250.4999786376953,402.59995,250.8999786376953Q402.29996,251.0999786376953,401.79996,251.0999786376953Q401.29996,251.0999786376953,400.99997,250.79997863769532Q400.69998,250.4999786376953,400.69998,249.8999786376953L400.69998,243.39999863769532L395.299988,236.6999986376953Q395,236.39999863769532,395,235.9999986376953Q395,235.4999996376953,395.299988,235.1999966376953Q395.699982,234.89999389649532,396.09998,234.89999389649532Q396.59998,234.89999389649532,396.89996,235.29998763769532L401.89996,241.4999886376953L406.7999,235.29998763769532ZM413.3999,251.19997863769532Q411.7999,251.19997863769532,410.4999,250.3999786376953Q409.2999,249.69997863769532,408.5999,248.3999786376953Q407.9999,247.0999786376953,407.9999,245.3999786376953Q407.9999,243.69997863769532,408.5999,242.3999786376953Q409.3,241.0999786376953,410.5999,240.3999786376953Q411.8,239.69997863769532,413.3999,239.69997863769532Q414.9999,239.69997863769532,416.1999,240.3999786376953Q417.4999,241.0999786376953,418.1999,242.3999786376953Q418.7999,243.69997863769532,418.7999,245.3999786376953Q418.7999,247.0999786376953,418.1999,248.3999786376953Q417.4999,249.69997863769532,416.1999,250.3999786376953Q414.9999,251.19997863769532,413.3999,251.19997863769532ZM413.3999,249.29997863769532Q414.8999,249.29997863769532,415.6999,248.29997863769532Q416.4999,247.29997863769532,416.4999,245.3999786376953Q416.4999,243.4999986376953,415.6999,242.4999986376953Q414.8999,241.4999986376953,413.3999,241.4999986376953Q411.8999,241.4999986376953,411.0999,242.4999986376953Q410.3,243.4999986376953,410.3,245.4999786376953Q410.3,247.29997863769532,411.0999,248.29997863769532Q411.8999,249.29997863769532,413.3999,249.29997863769532ZM429.8999,239.69997863769532Q430.4999,239.69997863769532,430.7999,239.9999886376953Q431.0999,240.29998863769532,431.0999,240.79998863769532L431.0999,249.9999786376953Q431.0999,250.4999786376953,430.7999,250.79997863769532Q430.3999,251.0999786376953,429.8999,251.0999786376953Q429.3999,251.0999786376953,429.0999,250.79997863769532Q428.8999,250.4999786376953,428.8999,250.0999786376953L428.8999,249.19997863769532Q428.2999,250.19997863769532,427.3999,250.69997863769532Q426.3999,251.19997863769532,425.3999,251.19997863769532Q421.3999,251.19997863769532,421.3999,246.69997863769532L421.3999,240.89999863769532Q421.3999,240.39999863769532,421.5999,240.0999886376953Q421.8999,239.79998863769532,422.4999,239.79998863769532Q422.9999,239.79998863769532,423.2999,240.0999886376953Q423.5999,240.39999863769532,423.5999,240.89999863769532L423.5999,246.79997863769532Q423.5999,248.0999786376953,424.1999,248.79997863769532Q424.6999,249.3999786376953,425.7999,249.3999786376953Q427.1999,249.3999786376953,427.9999,248.4999786376953Q428.7999,247.69997863769532,428.7999,246.19997863769532L428.7999,240.89999863769532Q428.7999,240.39999863769532,429.0999,240.0999886376953Q429.3999,239.79998863769532,429.8999,239.79998863769532L429.8999,239.69997863769532ZM440.0999,239.69997863769532Q441.0999,239.69997863769532,441.0999,240.69997863769532Q441.0999,241.0999786376953,440.8999,241.3999786376953Q440.6999,241.5999786376953,439.9999,241.69997863769532L439.3999,241.69997863769532Q437.8999,241.8999786376953,437.1999,242.69997863769532Q436.5999,243.69997863769532,436.5999,244.79998863769532L436.5999,249.9999786376953Q436.5999,250.5999786376953,436.1999,250.79997863769532Q435.8999,251.0999786376953,435.3999,251.0999786376953Q434.8999,251.0999786376953,434.5999,250.79997863769532Q434.3,250.5999786376953,434.3,249.9999786376953L434.3,240.89999863769532Q434.3,240.39999863769532,434.5999,240.0999886376953Q434.8999,239.79998863769532,435.3999,239.79998863769532Q435.8999,239.79998863769532,436.1999,240.0999886376953Q436.4999,240.39999863769532,436.4999,240.89999863769532L436.4999,241.89999863769532Q436.8999,240.89999863769532,437.7999,240.39999863769532Q438.6999,239.89999863769532,439.7999,239.79998863769532L440.0999,239.69997863769532ZM454.3999,239.69997863769532Q455.3999,239.69997863769532,455.3999,240.69997863769532Q455.3999,241.0999786376953,455.1999,241.3999786376953L454.2999,241.69997863769532L453.5999,241.69997863769532Q452.1999,241.8999786376953,451.5999,242.69997863769532Q450.7999,243.69997863769532,450.7999,244.79998863769532L450.7999,249.9999786376953Q450.7999,250.5999786376953,450.4999,250.79997863769532Q450.2,251.0999786376953,449.7,251.0999786376953Q449.2,251.0999786376953,448.9,250.79997863769532Q448.5,250.5999786376953,448.5,249.9999786376953L448.5,240.89999863769532Q448.5,240.39999863769532,448.9,240.0999886376953Q449.2,239.79998863769532,449.7,239.79998863769532Q450.2,239.79998863769532,450.4999,240.0999886376953Q450.7999,240.39999863769532,450.7999,240.89999863769532L450.7999,241.89999863769532Q451.1999,240.89999863769532,452.0999,240.39999863769532Q452.8999,239.89999863769532,454.0999,239.79998863769532L454.3999,239.69997863769532ZM465.2999,248.19997863769532Q465.5999,248.19997863769532,465.7999,248.4999786376953Q465.9999,248.69997863769532,465.9999,249.0999786376953Q465.9999,249.69997863769532,465.2,250.19997863769532Q464.4,250.69997863769532,463.4,250.8999786376953Q462.5,251.19997863769532,461.7,251.19997863769532Q458.9999,251.19997863769532,457.4999,249.5999786376953Q455.9999,248.0999786376953,455.9999,245.3999786376953Q455.9999,243.6999986376953,456.5999,242.39999863769532Q457.3,241.0999886376953,458.5999,240.39999863769532Q459.7,239.6999986376953,461.3,239.6999986376953Q463.5,239.6999986376953,464.8,241.0999886376953Q466.0999,242.4999886376953,466.0999,244.8999786376953Q466.0999,245.8999786376953,465.3,245.8999786376953L458.3,245.8999786376953Q458.5,249.3999786376953,461.5999,249.3999786376953Q462.4999,249.3999786376953,463.0999,249.0999786376953L464.3999,248.4999786376953L464.7999,248.3999786376953L465.2999,248.19997863769532ZM461.2999,241.29998863769532Q459.9999,241.29998863769532,459.2999,242.19997863769532Q458.3999,242.9999886376953,458.2999,244.4999886376953L464.0999,244.4999886376953Q464.0999,242.9999886376953,463.2999,242.19997863769532Q462.5999,241.29998863769532,461.2999,241.29998863769532ZM481.2999,239.69997863769532Q484.9999,239.69997863769532,484.9999,244.0999786376953L484.9999,250.0999786376953Q484.9999,250.4999786376953,484.7,250.79997863769532Q484.4,251.0999786376953,483.9,251.0999786376953Q483.4,251.0999786376953,483,250.79997863769532Q482.7,250.4999786376953,482.7,249.9999786376953L482.7,244.0999786376953Q482.7,242.79996863769532,482.2,242.0999786376953Q481.7,241.4999686376953,480.7,241.4999686376953Q479.4,241.4999686376953,478.7,242.3999586376953Q478,243.19996863769532,478,244.69996863769532L478,249.9999786376953Q478,250.4999786376953,477.7,250.79997863769532Q477.3,251.0999786376953,476.8,251.0999786376953Q476.3,251.0999786376953,476,250.79997863769532Q475.7,250.4999786376953,475.7,249.9999786376953L475.7,244.0999786376953Q475.7,242.79996863769532,475.2,242.0999786376953Q474.7,241.4999686376953,473.6,241.4999686376953Q472.4,241.4999686376953,471.6,242.3999586376953Q470.9,243.19996863769532,470.9,244.69996863769532L470.9,249.9999786376953Q470.9,250.4999786376953,470.6,250.79997863769532Q470.3,251.0999786376953,469.8,251.0999786376953Q469.3,251.0999786376953,468.9,250.79997863769532Q468.6,250.4999786376953,468.6,249.9999786376953L468.6,240.89999863769532Q468.6,240.39999863769532,468.9,240.0999886376953Q469.3,239.79998863769532,469.8,239.79998863769532Q470.2,239.79998863769532,470.5,240.0999886376953Q470.9,240.39999863769532,470.9,240.89999863769532L470.9,241.6999986376953Q471.4,240.6999986376953,472.2,240.29999863769532Q473.2,239.79999863769532,474.2,239.79999863769532Q475.5,239.79999863769532,476.4,240.29999863769532Q477.2,240.79999863769532,477.6,241.90000863769532Q478.1,240.90000863769532,479.1,240.40000863769532Q480.1,239.79999863769532,481.3,239.79999863769532L481.2999,239.69997863769532ZM492.9999,251.19997863769532Q491.2999,251.19997863769532,489.9999,250.3999786376953Q488.7999,249.69997863769532,488.2,248.3999786376953Q487.4999,247.0999786376953,487.4999,245.3999786376953Q487.4999,243.69997863769532,488.2,242.3999786376953Q488.8,241.0999786376953,490.0999,240.3999786376953Q491.3,239.69997863769532,492.9999,239.69997863769532Q494.6999,239.69997863769532,495.8,240.3999786376953Q497.1,241.0999786376953,497.8,242.3999786376953Q498.4,243.69997863769532,498.4,245.3999786376953Q498.4,247.0999786376953,497.7,248.3999786376953Q497.1,249.69997863769532,495.8,250.3999786376953Q494.5999,251.19997863769532,492.9999,251.19997863769532ZM492.9999,249.29997863769532Q494.4999,249.29997863769532,495.3,248.29997863769532Q496.1,247.29997863769532,496.1,245.3999786376953Q496.1,243.4999986376953,495.3,242.4999986376953Q494.3999,241.4999986376953,492.9999,241.4999986376953Q491.5999,241.4999986376953,490.5999,242.4999986376953Q489.8,243.4999986376953,489.8,245.4999786376953Q489.8,247.29997863769532,490.5999,248.29997863769532Q491.3999,249.29997863769532,492.9999,249.29997863769532ZM506.3,249.29997863769532Q506.8,249.3999786376953,507,249.5999786376953Q507.2,249.79997863769532,507.2,250.19997863769532Q507.2,250.69997863769532,506.9,250.8999786376953Q506.5,251.19997863769532,505.9,251.0999786376953L505.2,251.0999786376953Q503.4,250.8999786376953,502.5,249.9999786376953Q501.5,248.9999786376953,501.5,246.9999786376953L501.5,241.69997863769532L500.2,241.69997863769532Q499.2,241.69997863769532,499.2,240.79998863769532Q499.2,240.39999863769532,499.5,240.19997863769532Q499.8,239.8999786376953,500.2,239.8999786376953L501.6,239.8999786376953L501.6,237.5999786376953Q501.6,237.0999786376953,501.9,236.79996863769532Q502.2,236.4999686376953,502.7,236.4999686376953Q503.2,236.4999686376953,503.6,236.79996863769532Q503.9,237.0999786376953,503.9,237.5999786376953L503.9,239.8999786376953L506.1,239.8999786376953Q506.6,239.8999786376953,506.8,240.19997863769532Q507.1,240.3999786376953,507.1,240.79998863769532Q507.1,241.19997863769532,506.8,241.4999886376953Q506.6,241.69997863769532,506.1,241.69997863769532L504,241.69997863769532L504,247.19997863769532Q504,248.19997863769532,504.4,248.79997863769532Q504.9,249.19997863769532,505.8,249.29997863769532L506.3,249.29997863769532ZM517.5,248.29997863769532Q517.9,248.29997863769532,518.1,248.4999786376953Q518.3,248.69997863769532,518.3,249.0999786376953Q518.3,249.69997863769532,517.5,250.19997863769532Q516.7,250.69997863769532,515.7,250.8999786376953Q514.7,251.19997863769532,513.9,251.19997863769532Q511.3,251.19997863769532,509.8,249.5999786376953Q508.3,248.0999786376953,508.3,245.3999786376953Q508.3,243.6999986376953,508.9,242.39999863769532Q509.6,241.0999886376953,510.8,240.39999863769532Q512,239.6999986376953,513.6,239.6999986376953Q515.8,239.6999986376953,517.1,241.0999886376953Q518.4,242.4999886376953,518.4,244.8999786376953Q518.4,245.8999786376953,517.5,245.8999786376953L510.5,245.8999786376953Q510.8,249.3999786376953,513.9,249.3999786376953Q514.8,249.3999786376953,515.4,249.0999786376953L516.7,248.4999786376953L517,248.3999786376953L517.5,248.19997863769532L517.5,248.29997863769532ZM513.6,241.29998863769532Q512.3,241.29998863769532,511.5,242.19997863769532Q510.7,242.9999886376953,510.5,244.4999886376953L516.4,244.4999886376953Q516.4,242.9999886376953,515.6,242.19997863769532Q514.9,241.29998863769532,513.6,241.29998863769532ZM535.9,234.89999389649532Q536.4,234.89999389649532,536.7,235.1999966376953Q537.1,235.4999996376953,537.1,235.9999986376953L537.1,249.9999786376953Q537.1,250.4999786376953,536.7,250.79997863769532Q536.4,251.0999786376953,535.9,251.0999786376953Q535.4,251.0999786376953,535.1,250.79997863769532Q534.8,250.4999786376953,534.8,249.9999786376953L534.8,248.9999786376953Q534.3,249.9999786376953,533.3,250.5999786376953Q532.3,251.19997863769532,531.1,251.19997863769532Q529.7,251.19997863769532,528.6,250.3999786376953Q527.5,249.69997863769532,526.8,248.3999786376953Q526.2,247.0999786376953,526.2,245.3999786376953Q526.2,243.6000086376953,526.8,242.40000863769532Q527.5,241.1000086376953,528.6,240.40000863769532Q529.6,239.7000086376953,531.1,239.7000086376953Q532.4,239.7000086376953,533.3,240.2000086376953Q534.3,240.7000086376953,534.8,241.7000086376953L534.8,235.89999863769532Q534.8,235.4999996376953,535.1,235.1999966376953Q535.4,234.89999389649532,535.9,234.89999389649532ZM531.7,249.29997863769532Q533.2,249.29997863769532,534,248.29997863769532Q534.8,247.29997863769532,534.8,245.3999786376953Q534.8,243.4999986376953,534,242.4999986376953Q533.2,241.4999986376953,531.7,241.4999986376953Q530.2,241.4999986376953,529.4,242.4999986376953Q528.5,243.4999986376953,528.5,245.3999786376953Q528.5,247.19997863769532,529.4,248.29997863769532Q530.2,249.29997863769532,531.7,249.29997863769532ZM548.9,248.29997863769532Q549.2,248.29997863769532,549.4,248.4999786376953Q549.6,248.69997863769532,549.6,249.0999786376953Q549.6,249.69997863769532,548.8,250.19997863769532Q548,250.69997863769532,547.1,250.8999786376953Q546.1,251.19997863769532,545.3,251.19997863769532Q542.7,251.19997863769532,541.1,249.5999786376953Q539.6,248.0999786376953,539.6,245.3999786376953Q539.6,243.6999986376953,540.3,242.39999863769532Q541,241.0999886376953,542.2,240.39999863769532Q543.4,239.6999986376953,544.9,239.6999986376953Q547.1,239.6999986376953,548.4,241.0999886376953Q549.7,242.4999886376953,549.7,244.8999786376953Q549.7,245.8999786376953,548.9,245.8999786376953L541.9,245.8999786376953Q542.1,249.3999786376953,545.3,249.3999786376953Q546.1,249.3999786376953,546.7,249.0999786376953Q547.4,248.8999786376953,548,248.4999786376953L548.4,248.3999786376953L548.9,248.19997863769532L548.9,248.29997863769532ZM544.9,241.29998863769532Q543.7,241.29998863769532,542.9,242.19997863769532Q542.1,242.9999886376953,541.9,244.4999886376953L547.8,244.4999886376953Q547.7,242.9999886376953,547,242.19997863769532Q546.3,241.29998863769532,545,241.29998863769532L544.9,241.29998863769532ZM556.1,251.19997863769532Q553.8,251.19997863769532,552.3,250.19997863769532Q551.9,249.9999786376953,551.7,249.69997863769532L551.6,249.0999786376953Q551.6,248.69997863769532,551.8,248.4999786376953Q552,248.19997863769532,552.3,248.19997863769532Q552.6,248.19997863769532,553.3,248.5999786376953L554.5,249.19997863769532Q555.2,249.3999786376953,556.2,249.3999786376953Q557.2,249.3999786376953,557.9,248.9999786376953Q558.5,248.5999786376953,558.5,247.9999786376953Q558.5,247.4999786376953,558.2,247.19997863769532Q558,246.8999786376953,557.4,246.69997863769532L555.7,246.19997863769532Q553.7,245.79997863769532,552.7,245.0999786376953Q551.9,244.2999586376953,551.9,243.09995863769532Q551.9,242.09995863769532,552.5,241.2999586376953Q553.1,240.4999586376953,554.1,240.09995863769532Q555.1,239.69996863769532,556.3,239.69996863769532Q557.3,239.69996863769532,558.1,239.8999586376953Q559,240.09995863769532,559.6,240.59995863769532Q560.4,241.09995863769532,560.4,241.69996863769532Q560.4,242.09995863769532,560.1,242.3999586376953Q559.9,242.59995863769532,559.6,242.59995863769532L559.2,242.59995863769532Q559,242.59995863769532,558.7,242.19996863769532L557.5,241.69996863769532Q557,241.4999686376953,556.2,241.4999686376953Q555.2,241.4999686376953,554.7,241.8999586376953Q554.1,242.2999586376953,554.1,242.8999586376953Q554.1,243.59995863769532,554.6,243.8999586376953Q555.2,244.2999586376953,556.6,244.59995863769532Q558.2,244.8999586376953,559,245.3999786376953Q559.9,245.79997863769532,560.2,246.3999786376953Q560.6,246.9999786376953,560.6,247.8999786376953Q560.6,249.3999786376953,559.4,250.29997863769532Q558.2,251.19997863769532,556.1,251.19997863769532ZM572.5,249.19997863769532Q572.9,249.4999786376953,572.9,249.9999786376953Q572.9,250.4999786376953,572.6,250.79997863769532Q572.3,251.0999786376953,571.9,251.0999786376953Q571.4,251.0999786376953,571.1,250.79997863769532L565.5,245.79997863769532L565.5,249.9999786376953Q565.5,250.4999786376953,565.1,250.79997863769532Q564.8,251.0999786376953,564.3,251.0999786376953Q563.8,251.0999786376953,563.5,250.79997863769532Q563.2,250.4999786376953,563.2,249.9999786376953L563.2,235.9999886376953Q563.2,235.49998463769532,563.5,235.19998163769532Q563.8,234.8999786376953,564.3,234.8999786376953Q564.8,234.8999786376953,565.1,235.19998163769532Q565.5,235.49998463769532,565.5,235.9999886376953L565.5,244.8999786376953L570.6,240.0999786376953Q571,239.69997863769532,571.4,239.69997863769532Q571.8,239.69997863769532,572.1,239.9999886376953Q572.4,240.3999786376953,572.4,240.79998863769532Q572.4,241.1999986376953,572.1,241.5999886376953L568.1,245.29997863769532L572.5,249.19997863769532ZM580.2,249.3999786376953Q580.7,249.3999786376953,580.9,249.5999786376953Q581.2,249.79997863769532,581.2,250.19997863769532Q581.2,250.69997863769532,580.8,250.8999786376953Q580.5,251.19997863769532,579.8,251.0999786376953L579.2,251.0999786376953Q577.3,250.8999786376953,576.4,249.9999786376953Q575.5,248.9999786376953,575.5,246.9999786376953L575.5,241.69996863769532L574.2,241.69996863769532Q573.2,241.69996863769532,573.2,240.79996863769532Q573.2,240.3999786376953,573.4,240.19996863769532Q573.7,239.8999586376953,574.2,239.8999586376953L575.5,239.8999586376953L575.5,237.59995863769532Q575.5,237.09995863769532,575.8,236.7999586376953Q576.1,236.4999586376953,576.7,236.4999586376953Q577.2,236.4999586376953,577.5,236.7999586376953Q577.8,237.09995863769532,577.8,237.59995863769532L577.8,239.8999586376953L580.1,239.8999586376953Q580.5,239.8999586376953,580.8,240.19996863769532Q581.1,240.3999586376953,581.1,240.79996863769532Q581.1,241.19996863769532,580.8,241.4999686376953Q580.5,241.69996863769532,580.1,241.69996863769532L577.8,241.69996863769532L577.8,247.19997863769532Q577.8,248.19997863769532,578.2,248.79997863769532Q578.7,249.19997863769532,579.6,249.29997863769532L580.2,249.3999786376953ZM587.6,251.19997863769532Q586,251.19997863769532,584.8,250.3999786376953Q583.5,249.69997863769532,582.8,248.3999786376953Q582.2,247.0999786376953,582.2,245.3999786376953Q582.2,243.69997863769532,582.8,242.3999786376953Q583.5,241.0999786376953,584.8,240.3999786376953Q586,239.69997863769532,587.6,239.69997863769532Q589.2,239.69997863769532,590.5,240.3999786376953Q591.7,241.0999786376953,592.4,242.3999786376953Q593.1,243.69997863769532,593.1,245.3999786376953Q593.1,247.0999786376953,592.4,248.3999786376953Q591.7,249.69997863769532,590.4,250.3999786376953Q589.3,251.19997863769532,587.6,251.19997863769532ZM587.6,249.29997863769532Q589.1,249.29997863769532,589.9,248.29997863769532Q590.8,247.29997863769532,590.8,245.3999786376953Q590.8,243.4999986376953,589.9,242.4999986376953Q589.1,241.4999986376953,587.6,241.4999986376953Q586.1,241.4999986376953,585.3,242.4999986376953Q584.5,243.4999986376953,584.5,245.4999786376953Q584.5,247.29997863769532,585.3,248.29997863769532Q586.1,249.29997863769532,587.6,249.29997863769532ZM601.6,239.69997863769532Q603,239.69997863769532,604.1,240.3999786376953Q605.2,241.0999786376953,605.8,242.3999786376953Q606.5,243.69997863769532,606.5,245.3999786376953Q606.5,247.19997863769532,605.9,248.3999786376953Q605.3,249.5999786376953,604.1,250.3999786376953Q603,251.19997863769532,601.5,251.19997863769532Q600.3,251.19997863769532,599.3,250.5999786376953Q598.4,250.0999786376953,597.9,249.0999786376953L597.9,254.0999786376953Q597.9,254.5999786376953,597.6,254.8999786376953Q597.3,255.19997863769532,596.8,255.19997863769532Q596.3,255.19997863769532,595.9,254.8999786376953Q595.6,254.5999786376953,595.6,254.0999786376953L595.6,240.79996863769532Q595.6,240.29996863769532,595.9,239.9999686376953Q596.2,239.69996863769532,596.8,239.69996863769532Q597.3,239.69996863769532,597.6,239.9999686376953Q597.9,240.29996863769532,597.9,240.79996863769532L597.9,241.79996863769532Q598.4,240.79996863769532,599.3,240.19996863769532Q600.3,239.69996863769532,601.5,239.69996863769532L601.6,239.69997863769532ZM601,249.29997863769532Q602.5,249.29997863769532,603.3,248.29997863769532Q604.1,247.29997863769532,604.1,245.4999786376953Q604.1,243.4999886376953,603.3,242.4999886376953Q602.5,241.4999886376953,601,241.4999886376953Q599.5,241.4999886376953,598.7,242.4999886376953Q597.9,243.4999886376953,597.9,245.4999786376953Q597.9,247.29997863769532,598.7,248.29997863769532Q599.5,249.29997863769532,601,249.29997863769532Z" fill-rule="evenodd" fill="#0071FF" fill-opacity="1"/></g></g><g><path d="M458,72.47746948242187L458,94.95496948242187L461.51001,94.95496948242187L465.01999,94.95496948242187L465.01999,72.47746948242187L465.01999,49.999969482421875L461.51001,49.999969482421875L458,49.999969482421875L458,72.47746948242187ZM472.5796,72.47746948242187L472.5796,94.95496948242187L482.9071,94.95496948242187L493.2346,94.95496948242187L493.2346,91.37746948242187L493.2346,87.79996948242187L486.4846,87.79996948242187L479.7346,87.79996948242187L479.7346,72.47746948242187L479.7346,57.154969482421876L486.4846,57.154969482421876L493.2346,57.154969482421876L493.2346,53.577469482421876L493.2346,49.999969482421875L482.9071,49.999969482421875L472.5796,49.999969482421875L472.5796,72.47746948242187ZM502.55,72.47746948242187L502.55,94.95496948242187L506.12760000000003,94.95496948242187L509.705,94.95496948242187L509.705,72.47746948242187L509.705,49.999969482421875L506.12760000000003,49.999969482421875L502.55,49.999969482421875L502.55,72.47746948242187ZM521.6117,53.536969482421874L521.6522,57.087469482421874L528.3752,57.127969482421875L535.0847,57.154969482421876L535.0847,72.47746948242187L535.0847,87.79996948242187L528.3752,87.82696948242187L521.6522,87.86746948242188L521.6117,91.40446948242187L521.5847,94.95496948242187L531.9122,94.95496948242187L542.2397,94.95496948242187L542.2397,72.47746948242187L542.2397,49.999969482421875L531.9122,49.999969482421875L521.5847,49.999969482421875L521.6117,53.536969482421874ZM458,127.42246948242187L458,149.89996948242188L461.51001,149.89996948242188L465.01999,149.89996948242188L465.01999,127.42246948242187L465.01999,104.94496948242187L461.51001,104.94496948242187L458,104.94496948242187L458,127.42246948242187ZM472.6066,108.48196948242187L472.6471,112.03246948242187L479.3701,112.07296948242188L486.0796,112.09996948242187L486.0796,127.42246948242187L486.0796,142.74496948242188L479.3701,142.77196948242187L472.6471,142.81246948242188L472.6066,146.34946948242188L472.5796,149.89996948242188L482.9071,149.89996948242188L493.2346,149.89996948242188L493.2346,127.42246948242187L493.2346,104.94496948242187L482.9071,104.94496948242187L472.5796,104.94496948242187L472.6066,108.48196948242187ZM502.55,127.42246948242187L502.55,149.89996948242188L506.12760000000003,149.89996948242188L509.705,149.89996948242188L509.705,127.42246948242187L509.705,104.94496948242187L506.12760000000003,104.94496948242187L502.55,104.94496948242187L502.55,127.42246948242187ZM521.5847,127.42246948242187L521.5847,149.89996948242188L531.9122,149.89996948242188L542.2397,149.89996948242188L542.2397,146.32246948242187L542.2397,142.74496948242188L535.4897,142.74496948242188L528.7397,142.74496948242188L528.7397,127.42246948242187L528.7397,112.09996948242187L535.4897,112.09996948242187L542.2397,112.09996948242187L542.2397,108.52246948242188L542.2397,104.94496948242187L531.9122,104.94496948242187L521.5847,104.94496948242187L521.5847,127.42246948242187Z" fill="url(#master_svg1_3_162)" fill-opacity="1"/></g><g><g><path d="M307.146,216.2499786376953Q302.086,216.2499786376953,298.475,214.2029786376953Q294.864,212.1559786376953,292.932,208.40697863769532Q291,204.65797863769532,291,199.5519786376953Q291,195.73397863769532,292.104,192.67497863769532Q293.208,189.61597863769532,295.278,187.43097863769532Q297.348,185.24597863769532,300.361,184.07297863769531Q303.374,182.8999786376953,307.146,182.8999786376953Q309.676,182.8999786376953,312.114,183.54397863769532Q314.552,184.18797863769532,316.392,185.38397863769532Q317.358,185.9819786376953,317.68,186.8329786376953Q318.002,187.6839786376953,317.818,188.4889786376953Q317.634,189.29397863769532,317.059,189.8459786376953Q316.484,190.3979786376953,315.633,190.46697863769532Q314.782,190.5359786376953,313.77,189.8919786376953Q312.344,188.97197863769532,310.688,188.5579786376953Q309.032,188.1439786376953,307.33,188.1439786376953Q304.064,188.1439786376953,301.81,189.47797863769532Q299.556,190.81197863769532,298.406,193.34197863769532Q297.256,195.87197863769532,297.256,199.5519786376953Q297.256,203.1859786376953,298.406,205.7619786376953Q299.556,208.3379786376953,301.81,209.6719786376953Q304.064,211.0059786376953,307.33,211.0059786376953Q309.078,211.0059786376953,310.78,210.56897863769532Q312.48199999999997,210.1319786376953,314,209.21197863769532Q315.012,208.6139786376953,315.817,208.68297863769533Q316.622,208.75197863769532,317.174,209.25797863769532Q317.726,209.76397863769532,317.91,210.5229786376953Q318.094,211.28197863769532,317.818,212.08697863769532Q317.54200000000003,212.8919786376953,316.714,213.48997863769532Q314.874,214.82397863769532,312.321,215.5369786376953Q309.76800000000003,216.2499786376953,307.146,216.2499786376953ZM333.642,216.15797863769532Q332.216,216.15797863769532,331.457,215.35297863769532Q330.698,214.5479786376953,330.698,213.12197863769532L330.698,188.28197863769532L321.728,188.28197863769532Q320.532,188.28197863769532,319.865,187.61497863769532Q319.198,186.94797863769531,319.198,185.7979786376953Q319.198,184.6019786376953,319.865,183.9809786376953Q320.532,183.35997863769532,321.728,183.35997863769532L345.556,183.35997863769532Q346.752,183.35997863769532,347.419,183.9809786376953Q348.086,184.6019786376953,348.086,185.7979786376953Q348.086,186.94797863769531,347.419,187.61497863769532Q346.752,188.28197863769532,345.556,188.28197863769532L336.586,188.28197863769532L336.586,213.12197863769532Q336.586,214.5479786376953,335.85,215.35297863769532Q335.114,216.15797863769532,333.642,216.15797863769532ZM361.56399999999996,216.2499786376953Q359.54,216.2499786376953,357.516,215.9509786376953Q355.492,215.65197863769532,353.698,215.0309786376953Q351.904,214.4099786376953,350.478,213.48997863769532Q349.65,212.93797863769532,349.328,212.1559786376953Q349.006,211.3739786376953,349.121,210.61497863769532Q349.236,209.8559786376953,349.719,209.2809786376953Q350.202,208.70597863769532,350.938,208.56797863769532Q351.674,208.4299786376953,352.548,208.9819786376953Q354.572,210.1779786376953,356.826,210.7299786376953Q359.08,211.28197863769532,361.56399999999996,211.28197863769532Q365.198,211.28197863769532,366.854,210.06297863769532Q368.51,208.8439786376953,368.51,206.9119786376953Q368.51,205.3019786376953,367.337,204.3819786376953Q366.164,203.46197863769532,363.312,202.8639786376953L358.252,201.80597863769532Q353.882,200.8859786376953,351.743,198.7009786376953Q349.604,196.5159786376953,349.604,192.9279786376953Q349.604,190.6739786376953,350.524,188.8339786376953Q351.444,186.9939786376953,353.123,185.6599786376953Q354.802,184.3259786376953,357.125,183.6129786376953Q359.448,182.8999786376953,362.254,182.8999786376953Q365.014,182.8999786376953,367.498,183.5899796376953Q369.98199999999997,184.2799786376953,371.96,185.6139786376953Q372.696,186.1199786376953,372.949,186.8559786376953Q373.202,187.59197863769532,373.06399999999996,188.3049786376953Q372.926,189.0179786376953,372.42,189.5239786376953Q371.914,190.0299786376953,371.155,190.12197863769532Q370.396,190.2139786376953,369.43,189.6619786376953Q367.728,188.6959786376953,365.98,188.28197863769532Q364.23199999999997,187.8679786376953,362.20799999999997,187.8679786376953Q360.092,187.8679786376953,358.574,188.46597863769532Q357.056,189.0639786376953,356.251,190.14497863769532Q355.446,191.2259786376953,355.446,192.69797863769531Q355.446,194.35397863769532,356.55,195.34297863769532Q357.654,196.3319786376953,360.322,196.88397863769532L365.336,197.9419786376953Q369.89,198.90797863769532,372.121,200.97797863769532Q374.352,203.0479786376953,374.352,206.49797863769533Q374.352,208.70597863769532,373.455,210.4999786376953Q372.558,212.29397863769532,370.879,213.5819786376953Q369.2,214.8699786376953,366.854,215.5599786376953Q364.508,216.2499786376953,361.56399999999996,216.2499786376953ZM394.822,216.15797863769532Q393.396,216.15797863769532,392.637,215.35297863769532Q391.878,214.5479786376953,391.878,213.12197863769532L391.878,186.3499786376953Q391.878,184.87797863769532,392.65999999999997,184.1189786376953Q393.442,183.35997863769532,394.868,183.35997863769532L405.954,183.35997863769532Q411.29,183.35997863769532,414.188,185.91297863769532Q417.086,188.46597863769532,417.086,193.0659786376953Q417.086,196.05597863769532,415.775,198.21797863769532Q414.464,200.3799786376953,411.98,201.5299786376953Q409.496,202.6799786376953,405.954,202.6799786376953L406.368,201.98997863769532L407.88599999999997,201.98997863769532Q409.772,201.98997863769532,411.175,202.9099786376953Q412.578,203.82997863769532,413.63599999999997,205.80797863769533L417.086,212.2019786376953Q417.63800000000003,213.1679786376953,417.592,214.0879786376953Q417.546,215.00797863769532,416.902,215.5829786376953Q416.258,216.15797863769532,415.016,216.15797863769532Q413.774,216.15797863769532,412.992,215.6289786376953Q412.21,215.0999786376953,411.61199999999997,213.99597863769532L406.966,205.4399786376953Q406.13800000000003,203.8759786376953,405.01099999999997,203.34697863769532Q403.884,202.81797863769532,402.13599999999997,202.81797863769532L397.766,202.81797863769532L397.766,213.12197863769532Q397.766,214.5479786376953,397.03,215.35297863769532Q396.294,216.15797863769532,394.822,216.15797863769532ZM397.766,198.44797863769531L404.942,198.44797863769531Q408.116,198.44797863769531,409.749,197.1369786376953Q411.382,195.8259786376953,411.382,193.20397863769531Q411.382,190.62797863769532,409.749,189.3169786376953Q408.116,188.0059786376953,404.942,188.0059786376953L397.766,188.0059786376953L397.766,198.44797863769531ZM426.562,215.7899786376953Q425.044,215.7899786376953,424.23900000000003,214.98497863769532Q423.43399999999997,214.1799786376953,423.43399999999997,212.6619786376953L423.43399999999997,186.4879786376953Q423.43399999999997,184.9699786376953,424.23900000000003,184.1649786376953Q425.044,183.35997863769532,426.562,183.35997863769532L442.98400000000004,183.35997863769532Q444.134,183.35997863769532,444.755,183.9579786376953Q445.376,184.55597863769532,445.376,185.6599786376953Q445.376,186.8099786376953,444.755,187.43097863769532Q444.134,188.0519786376953,442.98400000000004,188.0519786376953L429.092,188.0519786376953L429.092,196.9759786376953L441.972,196.9759786376953Q443.168,196.9759786376953,443.76599999999996,197.57397863769532Q444.36400000000003,198.1719786376953,444.36400000000003,199.3219786376953Q444.36400000000003,200.47197863769532,443.76599999999996,201.06997863769533Q443.168,201.6679786376953,441.972,201.6679786376953L429.092,201.6679786376953L429.092,211.09797863769532L442.98400000000004,211.09797863769532Q444.134,211.09797863769532,444.755,211.6959786376953Q445.376,212.29397863769532,445.376,213.44397863769532Q445.376,214.5939786376953,444.755,215.1919786376953Q444.134,215.7899786376953,442.98400000000004,215.7899786376953L426.562,215.7899786376953ZM453.656,216.15797863769532Q452.368,216.15797863769532,451.678,215.4219786376953Q450.988,214.6859786376953,450.988,213.3979786376953L450.988,185.75197863769532Q450.988,184.4179786376953,451.724,183.70497863769532Q452.46000000000004,182.99197863769533,453.748,182.99197863769533Q454.898,182.99197863769533,455.565,183.4289786376953Q456.23199999999997,183.86597963769532,456.784,184.9239786376953L468.14599999999996,205.9459786376953L466.674,205.9459786376953L478.036,184.9239786376953Q478.58799999999997,183.86597963769532,479.23199999999997,183.4289786376953Q479.876,182.99197863769533,481.026,182.99197863769533Q482.31399999999996,182.99197863769533,483.004,183.70497863769532Q483.69399999999996,184.4179786376953,483.69399999999996,185.75197863769532L483.69399999999996,213.3979786376953Q483.69399999999996,214.6859786376953,483.027,215.4219786376953Q482.36,216.15797863769532,481.026,216.15797863769532Q479.738,216.15797863769532,479.048,215.4219786376953Q478.358,214.6859786376953,478.358,213.3979786376953L478.358,192.0999786376953L479.37,192.0999786376953L469.71000000000004,209.71797863769532Q469.25,210.4999786376953,468.744,210.8679786376953Q468.238,211.23597863769533,467.36400000000003,211.23597863769533Q466.49,211.23597863769533,465.938,210.8449786376953Q465.38599999999997,210.45397863769531,464.972,209.71797863769532L455.22,192.0539786376953L456.324,192.0539786376953L456.324,213.3979786376953Q456.324,214.6859786376953,455.65700000000004,215.4219786376953Q454.99,216.15797863769532,453.656,216.15797863769532ZM505.36,216.2499786376953Q500.668,216.2499786376953,497.149,214.1799786376953Q493.63,212.10997863769532,491.698,208.36097863769533Q489.76599999999996,204.6119786376953,489.76599999999996,199.5519786376953Q489.76599999999996,195.73397863769532,490.87,192.67497863769532Q491.974,189.61597863769532,494.02099999999996,187.43097863769532Q496.068,185.24597863769532,498.943,184.07297863769531Q501.818,182.8999786376953,505.36,182.8999786376953Q510.098,182.8999786376953,513.594,184.9469786376953Q517.09,186.9939786376953,519.0219999999999,190.7199786376953Q520.954,194.4459786376953,520.954,199.5059786376953Q520.954,203.32397863769532,519.85,206.4059786376953Q518.746,209.4879786376953,516.6990000000001,211.6959786376953Q514.652,213.9039786376953,511.777,215.0769786376953Q508.902,216.2499786376953,505.36,216.2499786376953ZM505.36,211.1899786376953Q508.35,211.1899786376953,510.443,209.8099786376953Q512.5360000000001,208.4299786376953,513.663,205.80797863769533Q514.79,203.1859786376953,514.79,199.5519786376953Q514.79,194.03197863769532,512.329,190.99597863769532Q509.868,187.95997863769531,505.36,187.95997863769531Q502.416,187.95997863769531,500.3,189.3169786376953Q498.18399999999997,190.6739786376953,497.057,193.2729786376953Q495.93,195.87197863769532,495.93,199.5519786376953Q495.93,205.02597863769532,498.414,208.1079786376953Q500.898,211.1899786376953,505.36,211.1899786376953ZM535.72,216.15797863769532Q534.294,216.15797863769532,533.535,215.35297863769532Q532.7760000000001,214.5479786376953,532.7760000000001,213.12197863769532L532.7760000000001,188.28197863769532L523.806,188.28197863769532Q522.61,188.28197863769532,521.943,187.61497863769532Q521.2760000000001,186.94797863769531,521.2760000000001,185.7979786376953Q521.2760000000001,184.6019786376953,521.943,183.9809786376953Q522.61,183.35997863769532,523.806,183.35997863769532L547.634,183.35997863769532Q548.8299999999999,183.35997863769532,549.4970000000001,183.9809786376953Q550.164,184.6019786376953,550.164,185.7979786376953Q550.164,186.94797863769531,549.4970000000001,187.61497863769532Q548.8299999999999,188.28197863769532,547.634,188.28197863769532L538.664,188.28197863769532L538.664,213.12197863769532Q538.664,214.5479786376953,537.928,215.35297863769532Q537.192,216.15797863769532,535.72,216.15797863769532ZM556.65,215.7899786376953Q555.1320000000001,215.7899786376953,554.327,214.98497863769532Q553.5219999999999,214.1799786376953,553.5219999999999,212.6619786376953L553.5219999999999,186.4879786376953Q553.5219999999999,184.9699786376953,554.327,184.1649786376953Q555.1320000000001,183.35997863769532,556.65,183.35997863769532L573.072,183.35997863769532Q574.222,183.35997863769532,574.8430000000001,183.9579786376953Q575.4639999999999,184.55597863769532,575.4639999999999,185.6599786376953Q575.4639999999999,186.8099786376953,574.8430000000001,187.43097863769532Q574.222,188.0519786376953,573.072,188.0519786376953L559.1800000000001,188.0519786376953L559.1800000000001,196.9759786376953L572.06,196.9759786376953Q573.256,196.9759786376953,573.854,197.57397863769532Q574.452,198.1719786376953,574.452,199.3219786376953Q574.452,200.47197863769532,573.854,201.06997863769533Q573.256,201.6679786376953,572.06,201.6679786376953L559.1800000000001,201.6679786376953L559.1800000000001,211.09797863769532L573.072,211.09797863769532Q574.222,211.09797863769532,574.8430000000001,211.6959786376953Q575.4639999999999,212.29397863769532,575.4639999999999,213.44397863769532Q575.4639999999999,214.5939786376953,574.8430000000001,215.1919786376953Q574.222,215.7899786376953,573.072,215.7899786376953L556.65,215.7899786376953ZM596.578,215.7899786376953Q595.06,215.7899786376953,594.255,214.98497863769532Q593.45,214.1799786376953,593.45,212.6619786376953L593.45,186.4879786376953Q593.45,184.9699786376953,594.255,184.1649786376953Q595.06,183.35997863769532,596.578,183.35997863769532L605.502,183.35997863769532Q613.644,183.35997863769532,618.0830000000001,187.5459786376953Q622.5219999999999,191.7319786376953,622.5219999999999,199.5519786376953Q622.5219999999999,203.46197863769532,621.395,206.4749786376953Q620.268,209.4879786376953,618.0830000000001,211.55797863769533Q615.898,213.62797863769532,612.7470000000001,214.7089786376953Q609.596,215.7899786376953,605.502,215.7899786376953L596.578,215.7899786376953ZM599.338,210.91397863769532L605.134,210.91397863769532Q607.986,210.91397863769532,610.079,210.2009786376953Q612.172,209.4879786376953,613.575,208.08497863769531Q614.9780000000001,206.68197863769532,615.668,204.5429786376953Q616.358,202.4039786376953,616.358,199.5519786376953Q616.358,193.84797863769532,613.552,191.0419786376953Q610.746,188.23597863769533,605.134,188.23597863769533L599.338,188.23597863769533L599.338,210.91397863769532ZM631.63,215.7899786376953Q630.1120000000001,215.7899786376953,629.307,214.98497863769532Q628.502,214.1799786376953,628.502,212.6619786376953L628.502,186.4879786376953Q628.502,184.9699786376953,629.307,184.1649786376953Q630.1120000000001,183.35997863769532,631.63,183.35997863769532L648.052,183.35997863769532Q649.202,183.35997863769532,649.823,183.9579786376953Q650.444,184.55597863769532,650.444,185.6599786376953Q650.444,186.8099786376953,649.823,187.43097863769532Q649.202,188.0519786376953,648.052,188.0519786376953L634.1600000000001,188.0519786376953L634.1600000000001,196.9759786376953L647.04,196.9759786376953Q648.236,196.9759786376953,648.8340000000001,197.57397863769532Q649.432,198.1719786376953,649.432,199.3219786376953Q649.432,200.47197863769532,648.8340000000001,201.06997863769533Q648.236,201.6679786376953,647.04,201.6679786376953L634.1600000000001,201.6679786376953L634.1600000000001,211.09797863769532L648.052,211.09797863769532Q649.202,211.09797863769532,649.823,211.6959786376953Q650.444,212.29397863769532,650.444,213.44397863769532Q650.444,214.5939786376953,649.823,215.1919786376953Q649.202,215.7899786376953,648.052,215.7899786376953L631.63,215.7899786376953ZM666.682,216.2499786376953Q664.658,216.2499786376953,662.634,215.9509786376953Q660.61,215.65197863769532,658.816,215.0309786376953Q657.0219999999999,214.4099786376953,655.596,213.48997863769532Q654.768,212.93797863769532,654.446,212.1559786376953Q654.124,211.3739786376953,654.239,210.61497863769532Q654.354,209.8559786376953,654.837,209.2809786376953Q655.3199999999999,208.70597863769532,656.056,208.56797863769532Q656.7919999999999,208.4299786376953,657.6659999999999,208.9819786376953Q659.69,210.1779786376953,661.944,210.7299786376953Q664.198,211.28197863769532,666.682,211.28197863769532Q670.316,211.28197863769532,671.972,210.06297863769532Q673.6279999999999,208.8439786376953,673.6279999999999,206.9119786376953Q673.6279999999999,205.3019786376953,672.4549999999999,204.3819786376953Q671.2819999999999,203.46197863769532,668.4300000000001,202.8639786376953L663.37,201.80597863769532Q659,200.8859786376953,656.861,198.7009786376953Q654.722,196.5159786376953,654.722,192.9279786376953Q654.722,190.6739786376953,655.642,188.8339786376953Q656.562,186.9939786376953,658.241,185.6599786376953Q659.9200000000001,184.3259786376953,662.2429999999999,183.6129786376953Q664.566,182.8999786376953,667.3720000000001,182.8999786376953Q670.1320000000001,182.8999786376953,672.616,183.5899796376953Q675.1,184.2799786376953,677.078,185.6139786376953Q677.8140000000001,186.1199786376953,678.067,186.8559786376953Q678.3199999999999,187.59197863769532,678.182,188.3049786376953Q678.044,189.0179786376953,677.538,189.5239786376953Q677.0319999999999,190.0299786376953,676.273,190.12197863769532Q675.514,190.2139786376953,674.548,189.6619786376953Q672.846,188.6959786376953,671.098,188.28197863769532Q669.35,187.8679786376953,667.326,187.8679786376953Q665.21,187.8679786376953,663.692,188.46597863769532Q662.174,189.0639786376953,661.369,190.14497863769532Q660.5640000000001,191.2259786376953,660.5640000000001,192.69797863769531Q660.5640000000001,194.35397863769532,661.668,195.34297863769532Q662.7719999999999,196.3319786376953,665.44,196.88397863769532L670.454,197.9419786376953Q675.008,198.90797863769532,677.239,200.97797863769532Q679.47,203.0479786376953,679.47,206.49797863769533Q679.47,208.70597863769532,678.573,210.4999786376953Q677.6759999999999,212.29397863769532,675.9970000000001,213.5819786376953Q674.318,214.8699786376953,671.972,215.5599786376953Q669.626,216.2499786376953,666.682,216.2499786376953ZM687.4739999999999,216.15797863769532Q686.048,216.15797863769532,685.289,215.35297863769532Q684.53,214.5479786376953,684.53,213.12197863769532L684.53,185.9819786376953Q684.53,184.50997863769533,685.289,183.7509796376953Q686.048,182.99197863769533,687.4739999999999,182.99197863769533Q688.9,182.99197863769533,689.659,183.7509796376953Q690.418,184.50997863769533,690.418,185.9819786376953L690.418,197.71197863769532L690.51,197.71197863769532L703.712,184.4639786376953Q704.448,183.72797863769532,705.184,183.35997863769532Q705.9200000000001,182.99197863769533,706.8399999999999,182.99197863769533Q708.174,182.99197863769533,708.749,183.68197963769532Q709.3240000000001,184.37197863769532,709.2090000000001,185.2919786376953Q709.094,186.21197863769532,708.312,186.9939786376953L694.88,200.28797863769532L694.9259999999999,197.6199786376953L708.956,211.8799786376953Q709.922,212.79997863769532,709.9680000000001,213.81197863769532Q710.014,214.82397863769532,709.347,215.49097863769532Q708.6800000000001,216.15797863769532,707.392,216.15797863769532Q706.288,216.15797863769532,705.621,215.69797863769531Q704.954,215.2379786376953,704.0799999999999,214.3639786376953L690.51,200.79397863769532L690.418,200.79397863769532L690.418,213.12197863769532Q690.418,214.5479786376953,689.682,215.35297863769532Q688.946,216.15797863769532,687.4739999999999,216.15797863769532Z" fill="#0071FF" fill-opacity="1"/></g></g></g></g></svg>