<svg xmlns="http://www.w3.org/2000/svg" xmlns:xlink="http://www.w3.org/1999/xlink" fill="none" version="1.1" width="26" height="26" viewBox="0 0 26 26"><defs><clipPath id="master_svg0_3_465"><rect x="0" y="0" width="26" height="26" rx="0"/></clipPath><linearGradient x1="0.09983060508966446" y1="0.9008647799491882" x2="0.8008610010147095" y2="0.20003634691238403" id="master_svg1_3_162"><stop offset="0%" stop-color="#0071FF" stop-opacity="1"/><stop offset="100%" stop-color="#00BFE1" stop-opacity="1"/></linearGradient></defs><g clip-path="url(#master_svg0_3_465)"><g><path d="M2.0000648498535156,5.8500114440917965L2.0000648498535156,11.700011444091796L2.9135778498535156,11.700011444091796L3.8270948498535153,11.700011444091796L3.8270948498535153,5.8500114440917965L3.8270948498535153,0.000011444091796875L2.9135778498535156,0.000011444091796875L2.0000648498535156,0.000011444091796875L2.0000648498535156,5.8500114440917965ZM5.794744849853515,5.8500114440917965L5.794744849853515,11.700011444091796L8.482584849853517,11.700011444091796L11.170414849853515,11.700011444091796L11.170414849853515,10.768911444091797L11.170414849853515,9.837851444091797L9.413664849853514,9.837851444091797L7.6569048498535155,9.837851444091797L7.6569048498535155,5.8500114440917965L7.6569048498535155,1.862171444091797L9.413664849853514,1.862171444091797L11.170414849853515,1.862171444091797L11.170414849853515,0.9310934440917968L11.170414849853515,0.000011444091796875L8.482584849853517,0.000011444091796875L5.794744849853515,0.000011444091796875L5.794744849853515,5.8500114440917965ZM13.594564849853516,5.8500114440917965L13.594564849853516,11.700011444091796L14.525664849853516,11.700011444091796L15.456664849853516,11.700011444091796L15.456664849853516,5.8500114440917965L15.456664849853516,0.000011444091796875L14.525664849853516,0.000011444091796875L13.594564849853516,0.000011444091796875L13.594564849853516,5.8500114440917965ZM18.555664849853514,0.9205514440917969L18.566264849853514,1.8446014440917968L20.315964849853515,1.8551514440917969L22.062164849853517,1.862171444091797L22.062164849853517,5.8500114440917965L22.062164849853517,9.837851444091797L20.315964849853515,9.844881444091797L18.566264849853514,9.855421444091796L18.555664849853514,10.775911444091797L18.548664849853516,11.700011444091796L21.236464849853515,11.700011444091796L23.924364849853514,11.700011444091796L23.924364849853514,5.8500114440917965L23.924364849853514,0.000011444091796875L21.236464849853515,0.000011444091796875L18.548664849853516,0.000011444091796875L18.555664849853514,0.9205514440917969ZM2.0000648498535156,20.150011444091795L2.0000648498535156,26.000011444091797L2.9135778498535156,26.000011444091797L3.8270948498535153,26.000011444091797L3.8270948498535153,20.150011444091795L3.8270948498535153,14.300011444091798L2.9135778498535156,14.300011444091798L2.0000648498535156,14.300011444091798L2.0000648498535156,20.150011444091795ZM5.801764849853516,15.220511444091796L5.812314849853516,16.144611444091797L7.562044849853516,16.155111444091798L9.308254849853515,16.162211444091795L9.308254849853515,20.150011444091795L9.308254849853515,24.137811444091795L7.562044849853516,24.144911444091797L5.812314849853516,24.155411444091797L5.801764849853516,25.075911444091798L5.794744849853515,26.000011444091797L8.482584849853517,26.000011444091797L11.170414849853515,26.000011444091797L11.170414849853515,20.150011444091795L11.170414849853515,14.300011444091798L8.482584849853517,14.300011444091798L5.794744849853515,14.300011444091798L5.801764849853516,15.220511444091796ZM13.594564849853516,20.150011444091795L13.594564849853516,26.000011444091797L14.525664849853516,26.000011444091797L15.456664849853516,26.000011444091797L15.456664849853516,20.150011444091795L15.456664849853516,14.300011444091798L14.525664849853516,14.300011444091798L13.594564849853516,14.300011444091798L13.594564849853516,20.150011444091795ZM18.548664849853516,20.150011444091795L18.548664849853516,26.000011444091797L21.236464849853515,26.000011444091797L23.924364849853514,26.000011444091797L23.924364849853514,25.068911444091796L23.924364849853514,24.137811444091795L22.167564849853516,24.137811444091795L20.410764849853514,24.137811444091795L20.410764849853514,20.150011444091795L20.410764849853514,16.162211444091795L22.167564849853516,16.162211444091795L23.924364849853514,16.162211444091795L23.924364849853514,15.231111444091797L23.924364849853514,14.300011444091798L21.236464849853515,14.300011444091798L18.548664849853516,14.300011444091798L18.548664849853516,20.150011444091795Z" fill="url(#master_svg1_3_162)" fill-opacity="1"/></g></g></svg>