<svg xmlns="http://www.w3.org/2000/svg" xmlns:xlink="http://www.w3.org/1999/xlink" fill="none" version="1.1" width="32" height="32" viewBox="0 0 32 32"><defs><clipPath id="master_svg0_3_458"><rect x="0" y="0" width="32" height="32" rx="0"/></clipPath><linearGradient x1="0.09983060508966446" y1="0.9008647799491882" x2="0.8008610010147095" y2="0.20003634691238403" id="master_svg1_3_162"><stop offset="0%" stop-color="#0071FF" stop-opacity="1"/><stop offset="100%" stop-color="#00BFE1" stop-opacity="1"/></linearGradient></defs><g clip-path="url(#master_svg0_3_458)"><g><g><g><rect x="0.000003814697265625" y="0" width="31.999998092651367" height="31.999998092651367" rx="5" fill="#FFFFFF" fill-opacity="1"/></g><g><path d="M5.000003814697266,8.85L5.000003814697266,14.7L5.913516814697266,14.7L6.827033814697265,14.7L6.827033814697265,8.85L6.827033814697265,3L5.913516814697266,3L5.000003814697266,3L5.000003814697266,8.85ZM8.794683814697265,8.85L8.794683814697265,14.7L11.482523814697267,14.7L14.170353814697265,14.7L14.170353814697265,13.7689L14.170353814697265,12.83784L12.413603814697264,12.83784L10.656843814697265,12.83784L10.656843814697265,8.85L10.656843814697265,4.86216L12.413603814697264,4.86216L14.170353814697265,4.86216L14.170353814697265,3.931082L14.170353814697265,3L11.482523814697267,3L8.794683814697265,3L8.794683814697265,8.85ZM16.594503814697266,8.85L16.594503814697266,14.7L17.525603814697266,14.7L18.456603814697267,14.7L18.456603814697267,8.85L18.456603814697267,3L17.525603814697266,3L16.594503814697266,3L16.594503814697266,8.85ZM21.555603814697264,3.92054L21.566203814697264,4.84459L23.315903814697265,4.8551400000000005L25.062103814697267,4.86216L25.062103814697267,8.85L25.062103814697267,12.83784L23.315903814697265,12.84487L21.566203814697264,12.85541L21.555603814697264,13.7759L21.548603814697266,14.7L24.236403814697265,14.7L26.924303814697264,14.7L26.924303814697264,8.85L26.924303814697264,3L24.236403814697265,3L21.548603814697266,3L21.555603814697264,3.92054ZM5.000003814697266,23.15L5.000003814697266,29L5.913516814697266,29L6.827033814697265,29L6.827033814697265,23.15L6.827033814697265,17.3L5.913516814697266,17.3L5.000003814697266,17.3L5.000003814697266,23.15ZM8.801703814697266,18.2205L8.812253814697266,19.1446L10.561983814697266,19.1551L12.308193814697265,19.1622L12.308193814697265,23.15L12.308193814697265,27.1378L10.561983814697266,27.1449L8.812253814697266,27.1554L8.801703814697266,28.0759L8.794683814697265,29L11.482523814697267,29L14.170353814697265,29L14.170353814697265,23.15L14.170353814697265,17.3L11.482523814697267,17.3L8.794683814697265,17.3L8.801703814697266,18.2205ZM16.594503814697266,23.15L16.594503814697266,29L17.525603814697266,29L18.456603814697267,29L18.456603814697267,23.15L18.456603814697267,17.3L17.525603814697266,17.3L16.594503814697266,17.3L16.594503814697266,23.15ZM21.548603814697266,23.15L21.548603814697266,29L24.236403814697265,29L26.924303814697264,29L26.924303814697264,28.0689L26.924303814697264,27.1378L25.167503814697266,27.1378L23.410703814697264,27.1378L23.410703814697264,23.15L23.410703814697264,19.1622L25.167503814697266,19.1622L26.924303814697264,19.1622L26.924303814697264,18.231099999999998L26.924303814697264,17.3L24.236403814697265,17.3L21.548603814697266,17.3L21.548603814697266,23.15Z" fill="url(#master_svg1_3_162)" fill-opacity="1"/></g></g></g></g></svg>